<svg xmlns="http://www.w3.org/2000/svg" class="rich-terminal" viewBox="0 0 994 635.6"><style>@font-face{font-family:&quot;Fira Code&quot;;src:local(&quot;FiraCode-Regular&quot;),url(https://cdnjs.cloudflare.com/ajax/libs/firacode/6.2.0/woff2/FiraCode-Regular.woff2) format(&quot;woff2&quot;),url(https://cdnjs.cloudflare.com/ajax/libs/firacode/6.2.0/woff/FiraCode-Regular.woff) format(&quot;woff&quot;);font-style:normal;font-weight:400}@font-face{font-family:&quot;Fira Code&quot;;src:local(&quot;FiraCode-Bold&quot;),url(https://cdnjs.cloudflare.com/ajax/libs/firacode/6.2.0/woff2/FiraCode-Bold.woff2) format(&quot;woff2&quot;),url(https://cdnjs.cloudflare.com/ajax/libs/firacode/6.2.0/woff/FiraCode-Bold.woff) format(&quot;woff&quot;);font-style:bold;font-weight:700}.terminal-2951911423-matrix{font-family:Fira Code,monospace;font-size:20px;line-height:24.4px;font-variant-east-asian:full-width}.terminal-2951911423-title{font-size:18px;font-weight:700;font-family:arial}.terminal-2951911423-r2{fill:#e1e1e1;font-weight:700}.terminal-2951911423-r3{fill:#e0e0e0}.terminal-2951911423-r4{fill:#ddedf9;font-weight:700}.terminal-2951911423-r5{fill:#0178d4}.terminal-2951911423-r6{fill:#98e024}.terminal-2951911423-r7{fill:#e0e0e0;font-weight:700}.terminal-2951911423-r8{fill:#a1a1a1}.terminal-2951911423-r9{fill:#9d9d9d}</style><defs><clipPath id="terminal-2951911423-clip-terminal"><rect width="975" height="584.6" x="0" y="0"/></clipPath><clipPath id="terminal-2951911423-line-0"><rect width="976" height="24.65" x="0" y="1.5"/></clipPath><clipPath id="terminal-2951911423-line-1"><rect width="976" height="24.65" x="0" y="25.9"/></clipPath><clipPath id="terminal-2951911423-line-2"><rect width="976" height="24.65" x="0" y="50.3"/></clipPath><clipPath id="terminal-2951911423-line-3"><rect width="976" height="24.65" x="0" y="74.7"/></clipPath><clipPath id="terminal-2951911423-line-4"><rect width="976" height="24.65" x="0" y="99.1"/></clipPath><clipPath id="terminal-2951911423-line-5"><rect width="976" height="24.65" x="0" y="123.5"/></clipPath><clipPath id="terminal-2951911423-line-6"><rect width="976" height="24.65" x="0" y="147.9"/></clipPath><clipPath id="terminal-2951911423-line-7"><rect width="976" height="24.65" x="0" y="172.3"/></clipPath><clipPath id="terminal-2951911423-line-8"><rect width="976" height="24.65" x="0" y="196.7"/></clipPath><clipPath id="terminal-2951911423-line-9"><rect width="976" height="24.65" x="0" y="221.1"/></clipPath><clipPath id="terminal-2951911423-line-10"><rect width="976" height="24.65" x="0" y="245.5"/></clipPath><clipPath id="terminal-2951911423-line-11"><rect width="976" height="24.65" x="0" y="269.9"/></clipPath><clipPath id="terminal-2951911423-line-12"><rect width="976" height="24.65" x="0" y="294.3"/></clipPath><clipPath id="terminal-2951911423-line-13"><rect width="976" height="24.65" x="0" y="318.7"/></clipPath><clipPath id="terminal-2951911423-line-14"><rect width="976" height="24.65" x="0" y="343.1"/></clipPath><clipPath id="terminal-2951911423-line-15"><rect width="976" height="24.65" x="0" y="367.5"/></clipPath><clipPath id="terminal-2951911423-line-16"><rect width="976" height="24.65" x="0" y="391.9"/></clipPath><clipPath id="terminal-2951911423-line-17"><rect width="976" height="24.65" x="0" y="416.3"/></clipPath><clipPath id="terminal-2951911423-line-18"><rect width="976" height="24.65" x="0" y="440.7"/></clipPath><clipPath id="terminal-2951911423-line-19"><rect width="976" height="24.65" x="0" y="465.1"/></clipPath><clipPath id="terminal-2951911423-line-20"><rect width="976" height="24.65" x="0" y="489.5"/></clipPath><clipPath id="terminal-2951911423-line-21"><rect width="976" height="24.65" x="0" y="513.9"/></clipPath><clipPath id="terminal-2951911423-line-22"><rect width="976" height="24.65" x="0" y="538.3"/></clipPath></defs><rect width="992" height="633.6" x="1" y="1" fill="#292929" stroke="rgba(255,255,255,0.35)" stroke-width="1" rx="8"/><text x="496" y="27" fill="#c5c8c6" class="terminal-2951911423-title" text-anchor="middle">s12-done</text><g transform="translate(26,22)"><circle cx="0" cy="0" r="7" fill="#ff5f57"/><circle cx="22" cy="0" r="7" fill="#febc2e"/><circle cx="44" cy="0" r="7" fill="#28c840"/></g><g clip-path="url(#terminal-2951911423-clip-terminal)" transform="translate(9, 41)"><rect width="12.2" height="24.65" x="0" y="1.5" fill="#1b1b1b" shape-rendering="crispEdges"/><rect width="951.6" height="24.65" x="12.2" y="1.5" fill="#1b1b1b" shape-rendering="crispEdges"/><rect width="12.2" height="24.65" x="963.8" y="1.5" fill="#1b1b1b" shape-rendering="crispEdges"/><rect width="24.4" height="24.65" x="0" y="25.9" fill="#272727" shape-rendering="crispEdges"/><rect width="24.4" height="24.65" x="24.4" y="25.9" fill="#0178d4" shape-rendering="crispEdges"/><rect width="793" height="24.65" x="48.8" y="25.9" fill="#0178d4" shape-rendering="crispEdges"/><rect width="122" height="24.65" x="841.8" y="25.9" fill="#0178d4" shape-rendering="crispEdges"/><rect width="12.2" height="24.65" x="963.8" y="25.9" fill="#272727" shape-rendering="crispEdges"/><rect width="24.4" height="24.65" x="0" y="50.3" fill="#272727" shape-rendering="crispEdges"/><rect width="24.4" height="24.65" x="24.4" y="50.3" fill="#272727" shape-rendering="crispEdges"/><rect width="24.4" height="24.65" x="48.8" y="50.3" fill="#272727" shape-rendering="crispEdges"/><rect width="646.6" height="24.65" x="73.2" y="50.3" fill="#272727" shape-rendering="crispEdges"/><rect width="122" height="24.65" x="719.8" y="50.3" fill="#272727" shape-rendering="crispEdges"/><rect width="24.4" height="24.65" x="841.8" y="50.3" fill="#272727" shape-rendering="crispEdges"/><rect width="73.2" height="24.65" x="866.2" y="50.3" fill="#272727" shape-rendering="crispEdges"/><rect width="24.4" height="24.65" x="939.4" y="50.3" fill="#272727" shape-rendering="crispEdges"/><rect width="12.2" height="24.65" x="963.8" y="50.3" fill="#272727" shape-rendering="crispEdges"/><rect width="963.8" height="24.65" x="0" y="74.7" fill="#272727" shape-rendering="crispEdges"/><rect width="12.2" height="24.65" x="963.8" y="74.7" fill="#272727" shape-rendering="crispEdges"/><rect width="976" height="24.65" x="0" y="99.1" fill="#121212" shape-rendering="crispEdges"/><rect width="12.2" height="24.65" x="0" y="123.5" fill="#121212" shape-rendering="crispEdges"/><rect width="756.4" height="24.65" x="12.2" y="123.5" fill="#121212" shape-rendering="crispEdges"/><rect width="195.2" height="24.65" x="768.6" y="123.5" fill="#121212" shape-rendering="crispEdges"/><rect width="12.2" height="24.65" x="963.8" y="123.5" fill="#121212" shape-rendering="crispEdges"/><rect width="12.2" height="24.65" x="0" y="147.9" fill="#121212" shape-rendering="crispEdges"/><rect width="610" height="24.65" x="12.2" y="147.9" fill="#121212" shape-rendering="crispEdges"/><rect width="341.6" height="24.65" x="622.2" y="147.9" fill="#121212" shape-rendering="crispEdges"/><rect width="12.2" height="24.65" x="963.8" y="147.9" fill="#121212" shape-rendering="crispEdges"/><rect width="12.2" height="24.65" x="0" y="172.3" fill="#121212" shape-rendering="crispEdges"/><rect width="0" height="24.65" x="12.2" y="172.3" fill="#121212" shape-rendering="crispEdges"/><rect width="951.6" height="24.65" x="12.2" y="172.3" fill="#121212" shape-rendering="crispEdges"/><rect width="12.2" height="24.65" x="963.8" y="172.3" fill="#121212" shape-rendering="crispEdges"/><rect width="12.2" height="24.65" x="0" y="196.7" fill="#121212" shape-rendering="crispEdges"/><rect width="939.4" height="24.65" x="12.2" y="196.7" fill="#121212" shape-rendering="crispEdges"/><rect width="12.2" height="24.65" x="951.6" y="196.7" fill="#121212" shape-rendering="crispEdges"/><rect width="12.2" height="24.65" x="963.8" y="196.7" fill="#121212" shape-rendering="crispEdges"/><rect width="12.2" height="24.65" x="0" y="221.1" fill="#121212" shape-rendering="crispEdges"/><rect width="939.4" height="24.65" x="12.2" y="221.1" fill="#121212" shape-rendering="crispEdges"/><rect width="12.2" height="24.65" x="951.6" y="221.1" fill="#121212" shape-rendering="crispEdges"/><rect width="12.2" height="24.65" x="963.8" y="221.1" fill="#121212" shape-rendering="crispEdges"/><rect width="12.2" height="24.65" x="0" y="245.5" fill="#121212" shape-rendering="crispEdges"/><rect width="109.8" height="24.65" x="12.2" y="245.5" fill="#121212" shape-rendering="crispEdges"/><rect width="841.8" height="24.65" x="122" y="245.5" fill="#121212" shape-rendering="crispEdges"/><rect width="12.2" height="24.65" x="963.8" y="245.5" fill="#121212" shape-rendering="crispEdges"/><rect width="12.2" height="24.65" x="0" y="269.9" fill="#121212" shape-rendering="crispEdges"/><rect width="378.2" height="24.65" x="12.2" y="269.9" fill="#121212" shape-rendering="crispEdges"/><rect width="573.4" height="24.65" x="390.4" y="269.9" fill="#121212" shape-rendering="crispEdges"/><rect width="12.2" height="24.65" x="963.8" y="269.9" fill="#121212" shape-rendering="crispEdges"/><rect width="12.2" height="24.65" x="0" y="294.3" fill="#121212" shape-rendering="crispEdges"/><rect width="536.8" height="24.65" x="12.2" y="294.3" fill="#121212" shape-rendering="crispEdges"/><rect width="414.8" height="24.65" x="549" y="294.3" fill="#121212" shape-rendering="crispEdges"/><rect width="12.2" height="24.65" x="963.8" y="294.3" fill="#121212" shape-rendering="crispEdges"/><rect width="12.2" height="24.65" x="0" y="318.7" fill="#121212" shape-rendering="crispEdges"/><rect width="488" height="24.65" x="12.2" y="318.7" fill="#121212" shape-rendering="crispEdges"/><rect width="463.6" height="24.65" x="500.2" y="318.7" fill="#121212" shape-rendering="crispEdges"/><rect width="12.2" height="24.65" x="963.8" y="318.7" fill="#121212" shape-rendering="crispEdges"/><rect width="12.2" height="24.65" x="0" y="343.1" fill="#121212" shape-rendering="crispEdges"/><rect width="158.6" height="24.65" x="12.2" y="343.1" fill="#121212" shape-rendering="crispEdges"/><rect width="793" height="24.65" x="170.8" y="343.1" fill="#121212" shape-rendering="crispEdges"/><rect width="12.2" height="24.65" x="963.8" y="343.1" fill="#121212" shape-rendering="crispEdges"/><rect width="12.2" height="24.65" x="0" y="367.5" fill="#121212" shape-rendering="crispEdges"/><rect width="414.8" height="24.65" x="12.2" y="367.5" fill="#121212" shape-rendering="crispEdges"/><rect width="536.8" height="24.65" x="427" y="367.5" fill="#121212" shape-rendering="crispEdges"/><rect width="12.2" height="24.65" x="963.8" y="367.5" fill="#121212" shape-rendering="crispEdges"/><rect width="12.2" height="24.65" x="0" y="391.9" fill="#121212" shape-rendering="crispEdges"/><rect width="951.6" height="24.65" x="12.2" y="391.9" fill="#121212" shape-rendering="crispEdges"/><rect width="12.2" height="24.65" x="963.8" y="391.9" fill="#121212" shape-rendering="crispEdges"/><rect width="12.2" height="24.65" x="0" y="416.3" fill="#121212" shape-rendering="crispEdges"/><rect width="951.6" height="24.65" x="12.2" y="416.3" fill="#121212" shape-rendering="crispEdges"/><rect width="12.2" height="24.65" x="963.8" y="416.3" fill="#121212" shape-rendering="crispEdges"/><rect width="12.2" height="24.65" x="0" y="440.7" fill="#121212" shape-rendering="crispEdges"/><rect width="951.6" height="24.65" x="12.2" y="440.7" fill="#121212" shape-rendering="crispEdges"/><rect width="12.2" height="24.65" x="963.8" y="440.7" fill="#121212" shape-rendering="crispEdges"/><rect width="12.2" height="24.65" x="0" y="465.1" fill="#121212" shape-rendering="crispEdges"/><rect width="951.6" height="24.65" x="12.2" y="465.1" fill="#121212" shape-rendering="crispEdges"/><rect width="12.2" height="24.65" x="963.8" y="465.1" fill="#121212" shape-rendering="crispEdges"/><rect width="12.2" height="24.65" x="0" y="489.5" fill="#121212" shape-rendering="crispEdges"/><rect width="951.6" height="24.65" x="12.2" y="489.5" fill="#121212" shape-rendering="crispEdges"/><rect width="12.2" height="24.65" x="963.8" y="489.5" fill="#121212" shape-rendering="crispEdges"/><rect width="12.2" height="24.65" x="0" y="513.9" fill="#121212" shape-rendering="crispEdges"/><rect width="951.6" height="24.65" x="12.2" y="513.9" fill="#121212" shape-rendering="crispEdges"/><rect width="12.2" height="24.65" x="963.8" y="513.9" fill="#121212" shape-rendering="crispEdges"/><rect width="12.2" height="24.65" x="0" y="538.3" fill="#1b1b1b" shape-rendering="crispEdges"/><rect width="73.2" height="24.65" x="12.2" y="538.3" fill="#1b1b1b" shape-rendering="crispEdges"/><rect width="36.6" height="24.65" x="85.4" y="538.3" fill="#1b1b1b" shape-rendering="crispEdges"/><rect width="109.8" height="24.65" x="122" y="538.3" fill="#1b1b1b" shape-rendering="crispEdges"/><rect width="36.6" height="24.65" x="231.8" y="538.3" fill="#1b1b1b" shape-rendering="crispEdges"/><rect width="122" height="24.65" x="268.4" y="538.3" fill="#1b1b1b" shape-rendering="crispEdges"/><rect width="36.6" height="24.65" x="390.4" y="538.3" fill="#1b1b1b" shape-rendering="crispEdges"/><rect width="97.6" height="24.65" x="427" y="538.3" fill="#1b1b1b" shape-rendering="crispEdges"/><rect width="36.6" height="24.65" x="524.6" y="538.3" fill="#1b1b1b" shape-rendering="crispEdges"/><rect width="170.8" height="24.65" x="561.2" y="538.3" fill="#1b1b1b" shape-rendering="crispEdges"/><rect width="36.6" height="24.65" x="732" y="538.3" fill="#1b1b1b" shape-rendering="crispEdges"/><rect width="85.4" height="24.65" x="768.6" y="538.3" fill="#1b1b1b" shape-rendering="crispEdges"/><rect width="109.8" height="24.65" x="854" y="538.3" fill="#1b1b1b" shape-rendering="crispEdges"/><rect width="12.2" height="24.65" x="963.8" y="538.3" fill="#1b1b1b" shape-rendering="crispEdges"/><rect width="12.2" height="24.65" x="0" y="562.7" fill="#1b1b1b" shape-rendering="crispEdges"/><rect width="414.8" height="24.65" x="12.2" y="562.7" fill="#1b1b1b" shape-rendering="crispEdges"/><rect width="536.8" height="24.65" x="427" y="562.7" fill="#1b1b1b" shape-rendering="crispEdges"/><rect width="12.2" height="24.65" x="963.8" y="562.7" fill="#1b1b1b" shape-rendering="crispEdges"/><g class="terminal-2951911423-matrix"><text x="12.2" y="20" class="terminal-2951911423-r2" clip-path="url(#terminal-2951911423-line-0)" textLength="951.6">the plan of …thon/54549fa9-e1eb-4ba4-b6c6-142d23581fe3/scratchpad/sit/out/demo</text><text x="0" y="44.4" class="terminal-2951911423-r3" clip-path="url(#terminal-2951911423-line-1)" textLength="24.4">▼</text><text x="24.4" y="44.4" class="terminal-2951911423-r4" clip-path="url(#terminal-2951911423-line-1)" textLength="24.4">○</text><text x="48.8" y="44.4" class="terminal-2951911423-r4" clip-path="url(#terminal-2951911423-line-1)" textLength="793">a friendlier app</text><text x="841.8" y="44.4" class="terminal-2951911423-r4" clip-path="url(#terminal-2951911423-line-1)" textLength="122">2/2 done</text><text x="0" y="68.8" class="terminal-2951911423-r5" clip-path="url(#terminal-2951911423-line-2)" textLength="24.4">└</text><text x="24.4" y="68.8" class="terminal-2951911423-r3" clip-path="url(#terminal-2951911423-line-2)" textLength="24.4">▶</text><text x="48.8" y="68.8" class="terminal-2951911423-r6" clip-path="url(#terminal-2951911423-line-2)" textLength="24.4">✓</text><text x="73.2" y="68.8" class="terminal-2951911423-r7" clip-path="url(#terminal-2951911423-line-2)" textLength="646.6">say hello</text><text x="719.8" y="68.8" class="terminal-2951911423-r8" clip-path="url(#terminal-2951911423-line-2)" textLength="122">friendly</text><text x="866.2" y="68.8" class="terminal-2951911423-r6" clip-path="url(#terminal-2951911423-line-2)" textLength="73.2">2 done</text><text x="0" y="117.6" class="terminal-2951911423-r5" clip-path="url(#terminal-2951911423-line-4)" textLength="976">────────────────────────────────────────────────────────────────────────────────</text><text x="12.2" y="142" class="terminal-2951911423-r3" clip-path="url(#terminal-2951911423-line-5)" textLength="756.4">graphene run --parallel 4 ended (exit 0); all it said, kept in</text><text x="12.2" y="166.4" class="terminal-2951911423-r3" clip-path="url(#terminal-2951911423-line-6)" textLength="610">.graphene/runs/run-20260925-035527-5553-2.txt:</text><text x="12.2" y="215.2" class="terminal-2951911423-r3" clip-path="url(#terminal-2951911423-line-8)" textLength="939.4">(the plan of /private/tmp/claude-501/-Users-alexlopez-Desktop-AllThingsAgen</text><text x="12.2" y="239.6" class="terminal-2951911423-r3" clip-path="url(#terminal-2951911423-line-9)" textLength="939.4">ticHackathon/54549fa9-e1eb-4ba4-b6c6-142d23581fe3/scratchpad/sit/out/de</text><text x="12.2" y="264" class="terminal-2951911423-r3" clip-path="url(#terminal-2951911423-line-10)" textLength="109.8">mo)</text><text x="12.2" y="288.4" class="terminal-2951911423-r3" clip-path="url(#terminal-2951911423-line-11)" textLength="378.2">greet started: greet says hello</text><text x="12.2" y="312.8" class="terminal-2951911423-r3" clip-path="url(#terminal-2951911423-line-12)" textLength="536.8">greet attempt 1: the executor ended (exit 0)</text><text x="12.2" y="337.2" class="terminal-2951911423-r3" clip-path="url(#terminal-2951911423-line-13)" textLength="488">friendly is done: everything under it is</text><text x="12.2" y="361.6" class="terminal-2951911423-r3" clip-path="url(#terminal-2951911423-line-14)" textLength="158.6">greet is done</text><text x="12.2" y="386" class="terminal-2951911423-r3" clip-path="url(#terminal-2951911423-line-15)" textLength="414.8">run: 1 done; $0.0002 at list price</text><text x="12.2" y="556.8" class="terminal-2951911423-r3" clip-path="url(#terminal-2951911423-line-22)" textLength="73.2">you: 0</text><text x="85.4" y="556.8" class="terminal-2951911423-r9" clip-path="url(#terminal-2951911423-line-22)" textLength="36.6">·</text><text x="122" y="556.8" class="terminal-2951911423-r3" clip-path="url(#terminal-2951911423-line-22)" textLength="109.8">0 running</text><text x="231.8" y="556.8" class="terminal-2951911423-r9" clip-path="url(#terminal-2951911423-line-22)" textLength="36.6">·</text><text x="268.4" y="556.8" class="terminal-2951911423-r3" clip-path="url(#terminal-2951911423-line-22)" textLength="122">none ready</text><text x="390.4" y="556.8" class="terminal-2951911423-r9" clip-path="url(#terminal-2951911423-line-22)" textLength="36.6">·</text><text x="427" y="556.8" class="terminal-2951911423-r3" clip-path="url(#terminal-2951911423-line-22)" textLength="97.6">2/2 done</text><text x="524.6" y="556.8" class="terminal-2951911423-r9" clip-path="url(#terminal-2951911423-line-22)" textLength="36.6">·</text><text x="561.2" y="556.8" class="terminal-2951911423-r3" clip-path="url(#terminal-2951911423-line-22)" textLength="170.8">plan first: on</text><text x="732" y="556.8" class="terminal-2951911423-r9" clip-path="url(#terminal-2951911423-line-22)" textLength="36.6">·</text><text x="768.6" y="556.8" class="terminal-2951911423-r9" clip-path="url(#terminal-2951911423-line-22)" textLength="85.4">$0.0019</text><text x="12.2" y="581.2" class="terminal-2951911423-r3" clip-path="url(#terminal-2951911423-line-23)" textLength="414.8">run: 1 done; $0.0002 at list price</text></g></g></svg>