<svg xmlns="http://www.w3.org/2000/svg" class="rich-terminal" viewBox="0 0 994 660"><style>@font-face{font-family:&quot;Fira Code&quot;;src:local(&quot;FiraCode-Regular&quot;),url(https://cdnjs.cloudflare.com/ajax/libs/firacode/6.2.0/woff2/FiraCode-Regular.woff2) format(&quot;woff2&quot;),url(https://cdnjs.cloudflare.com/ajax/libs/firacode/6.2.0/woff/FiraCode-Regular.woff) format(&quot;woff&quot;);font-style:normal;font-weight:400}@font-face{font-family:&quot;Fira Code&quot;;src:local(&quot;FiraCode-Bold&quot;),url(https://cdnjs.cloudflare.com/ajax/libs/firacode/6.2.0/woff2/FiraCode-Bold.woff2) format(&quot;woff2&quot;),url(https://cdnjs.cloudflare.com/ajax/libs/firacode/6.2.0/woff/FiraCode-Bold.woff) format(&quot;woff&quot;);font-style:bold;font-weight:700}.terminal-1887099496-matrix{font-family:Fira Code,monospace;font-size:20px;line-height:24.4px;font-variant-east-asian:full-width}.terminal-1887099496-title{font-size:18px;font-weight:700;font-family:arial}.terminal-1887099496-r1{fill:#c5c8c6}.terminal-1887099496-r2{fill:#dadada;font-weight:700}.terminal-1887099496-r3{fill:#dadada}.terminal-1887099496-r4{fill:#87d700}.terminal-1887099496-r5{fill:#9e9e9e}.terminal-1887099496-r6{fill:#4e4e4e}.terminal-1887099496-r7{fill:#d7ffff;font-weight:700}.terminal-1887099496-r8{fill:#87d7ff;font-weight:700}.terminal-1887099496-r9{fill:#0087d7}.terminal-1887099496-r11{fill:#949494}.terminal-1887099496-r13{fill:#000}</style><defs><clipPath id="terminal-1887099496-clip-terminal"><rect width="975" height="609" x="0" y="0"/></clipPath><clipPath id="terminal-1887099496-line-0"><rect width="976" height="24.65" x="0" y="1.5"/></clipPath><clipPath id="terminal-1887099496-line-1"><rect width="976" height="24.65" x="0" y="25.9"/></clipPath><clipPath id="terminal-1887099496-line-2"><rect width="976" height="24.65" x="0" y="50.3"/></clipPath><clipPath id="terminal-1887099496-line-3"><rect width="976" height="24.65" x="0" y="74.7"/></clipPath><clipPath id="terminal-1887099496-line-4"><rect width="976" height="24.65" x="0" y="99.1"/></clipPath><clipPath id="terminal-1887099496-line-5"><rect width="976" height="24.65" x="0" y="123.5"/></clipPath><clipPath id="terminal-1887099496-line-6"><rect width="976" height="24.65" x="0" y="147.9"/></clipPath><clipPath id="terminal-1887099496-line-7"><rect width="976" height="24.65" x="0" y="172.3"/></clipPath><clipPath id="terminal-1887099496-line-8"><rect width="976" height="24.65" x="0" y="196.7"/></clipPath><clipPath id="terminal-1887099496-line-9"><rect width="976" height="24.65" x="0" y="221.1"/></clipPath><clipPath id="terminal-1887099496-line-10"><rect width="976" height="24.65" x="0" y="245.5"/></clipPath><clipPath id="terminal-1887099496-line-11"><rect width="976" height="24.65" x="0" y="269.9"/></clipPath><clipPath id="terminal-1887099496-line-12"><rect width="976" height="24.65" x="0" y="294.3"/></clipPath><clipPath id="terminal-1887099496-line-13"><rect width="976" height="24.65" x="0" y="318.7"/></clipPath><clipPath id="terminal-1887099496-line-14"><rect width="976" height="24.65" x="0" y="343.1"/></clipPath><clipPath id="terminal-1887099496-line-15"><rect width="976" height="24.65" x="0" y="367.5"/></clipPath><clipPath id="terminal-1887099496-line-16"><rect width="976" height="24.65" x="0" y="391.9"/></clipPath><clipPath id="terminal-1887099496-line-17"><rect width="976" height="24.65" x="0" y="416.3"/></clipPath><clipPath id="terminal-1887099496-line-18"><rect width="976" height="24.65" x="0" y="440.7"/></clipPath><clipPath id="terminal-1887099496-line-19"><rect width="976" height="24.65" x="0" y="465.1"/></clipPath><clipPath id="terminal-1887099496-line-20"><rect width="976" height="24.65" x="0" y="489.5"/></clipPath><clipPath id="terminal-1887099496-line-21"><rect width="976" height="24.65" x="0" y="513.9"/></clipPath><clipPath id="terminal-1887099496-line-22"><rect width="976" height="24.65" x="0" y="538.3"/></clipPath><clipPath id="terminal-1887099496-line-23"><rect width="976" height="24.65" x="0" y="562.7"/></clipPath></defs><rect width="992" height="658" x="1" y="1" fill="#292929" stroke="rgba(255,255,255,0.35)" stroke-width="1" rx="8"/><text x="496" y="27" fill="#c5c8c6" class="terminal-1887099496-title" text-anchor="middle">graphene watch · 80x24 · before</text><g transform="translate(26,22)"><circle cx="0" cy="0" r="7" fill="#ff5f57"/><circle cx="22" cy="0" r="7" fill="#febc2e"/><circle cx="44" cy="0" r="7" fill="#28c840"/></g><g clip-path="url(#terminal-1887099496-clip-terminal)" transform="translate(9, 41)"><rect width="12.2" height="24.65" x="0" y="1.5" fill="#1c1c1c" shape-rendering="crispEdges"/><rect width="207.4" height="24.65" x="12.2" y="1.5" fill="#1c1c1c" shape-rendering="crispEdges"/><rect width="719.8" height="24.65" x="219.6" y="1.5" fill="#1c1c1c" shape-rendering="crispEdges"/><rect width="24.4" height="24.65" x="0" y="25.9" fill="#262626" shape-rendering="crispEdges"/><rect width="24.4" height="24.65" x="24.4" y="25.9" fill="#262626" shape-rendering="crispEdges"/><rect width="488" height="24.65" x="48.8" y="25.9" fill="#262626" shape-rendering="crispEdges"/><rect width="170.8" height="24.65" x="536.8" y="25.9" fill="#262626" shape-rendering="crispEdges"/><rect width="268.4" height="24.65" x="707.6" y="25.9" fill="#262626" shape-rendering="crispEdges"/><rect width="317.2" height="24.65" x="48.8" y="50.3" fill="#262626" shape-rendering="crispEdges"/><rect width="170.8" height="24.65" x="366" y="50.3" fill="#262626" shape-rendering="crispEdges"/><rect width="439.2" height="24.65" x="536.8" y="50.3" fill="#262626" shape-rendering="crispEdges"/><rect width="292.8" height="24.65" x="24.4" y="99.1" fill="#0087d7" shape-rendering="crispEdges"/><rect width="170.8" height="24.65" x="317.2" y="99.1" fill="#0087d7" shape-rendering="crispEdges"/><rect width="488" height="24.65" x="488" y="99.1" fill="#262626" shape-rendering="crispEdges"/><rect width="976" height="24.65" x="0" y="318.7" fill="#121212" shape-rendering="crispEdges"/><rect width="268.4" height="24.65" x="12.2" y="343.1" fill="#121212" shape-rendering="crispEdges"/><rect width="658.8" height="24.65" x="280.6" y="343.1" fill="#121212" shape-rendering="crispEdges"/><rect width="24.4" height="24.65" x="939.4" y="343.1" fill="#005f5f" shape-rendering="crispEdges"/><rect width="24.4" height="24.65" x="939.4" y="367.5" fill="#005f5f" shape-rendering="crispEdges"/><rect width="24.4" height="24.65" x="939.4" y="391.9" fill="#005f5f" shape-rendering="crispEdges"/><rect width="24.4" height="24.65" x="939.4" y="416.3" fill="#005f5f" shape-rendering="crispEdges"/><rect width="85.4" height="24.65" x="12.2" y="440.7" fill="#121212" shape-rendering="crispEdges"/><rect width="622.2" height="24.65" x="97.6" y="440.7" fill="#121212" shape-rendering="crispEdges"/><rect width="219.6" height="24.65" x="719.8" y="440.7" fill="#121212" shape-rendering="crispEdges"/><rect width="24.4" height="24.65" x="939.4" y="440.7" fill="#005f5f" shape-rendering="crispEdges"/><rect width="24.4" height="24.65" x="939.4" y="465.1" fill="#000" shape-rendering="crispEdges"/><rect width="85.4" height="24.65" x="12.2" y="489.5" fill="#121212" shape-rendering="crispEdges"/><rect width="451.4" height="24.65" x="97.6" y="489.5" fill="#121212" shape-rendering="crispEdges"/><rect width="390.4" height="24.65" x="549" y="489.5" fill="#121212" shape-rendering="crispEdges"/><rect width="24.4" height="24.65" x="939.4" y="489.5" fill="#000" shape-rendering="crispEdges"/><rect width="85.4" height="24.65" x="12.2" y="513.9" fill="#121212" shape-rendering="crispEdges"/><rect width="256.2" height="24.65" x="97.6" y="513.9" fill="#121212" shape-rendering="crispEdges"/><rect width="585.6" height="24.65" x="353.8" y="513.9" fill="#121212" shape-rendering="crispEdges"/><rect width="24.4" height="24.65" x="939.4" y="513.9" fill="#000" shape-rendering="crispEdges"/><rect width="12.2" height="24.65" x="0" y="538.3" fill="#1c1c1c" shape-rendering="crispEdges"/><rect width="646.6" height="24.65" x="12.2" y="538.3" fill="#1c1c1c" shape-rendering="crispEdges"/><g class="terminal-1887099496-matrix"><text x="12.2" y="20" class="terminal-1887099496-r2" clip-path="url(#terminal-1887099496-line-0)" textLength="207.4">~/graphene-polish</text><text x="219.6" y="20" class="terminal-1887099496-r3" clip-path="url(#terminal-1887099496-line-0)" textLength="719.8">· the plan: Load the Northwind XML feed through the same</text><text x="0" y="44.4" class="terminal-1887099496-r3" clip-path="url(#terminal-1887099496-line-1)" textLength="24.4">▶</text><text x="24.4" y="44.4" class="terminal-1887099496-r4" clip-path="url(#terminal-1887099496-line-1)" textLength="24.4">✓</text><text x="48.8" y="44.4" class="terminal-1887099496-r2" clip-path="url(#terminal-1887099496-line-1)" textLength="488">zero price is skipped for every supplier</text><text x="536.8" y="44.4" class="terminal-1887099496-r5" clip-path="url(#terminal-1887099496-line-1)" textLength="170.8">[zero-price]</text><text x="0" y="68.8" class="terminal-1887099496-r1" clip-path="url(#terminal-1887099496-line-2)" textLength="48.8">▼ ○</text><text x="48.8" y="68.8" class="terminal-1887099496-r2" clip-path="url(#terminal-1887099496-line-2)" textLength="317.2">the xml source is wired in</text><text x="366" y="68.8" class="terminal-1887099496-r5" clip-path="url(#terminal-1887099496-line-2)" textLength="170.8">[xml-source]</text><text x="0" y="93.2" class="terminal-1887099496-r6" clip-path="url(#terminal-1887099496-line-3)" textLength="24.4">├</text><text x="24.4" y="93.2" class="terminal-1887099496-r4" clip-path="url(#terminal-1887099496-line-3)" textLength="24.4">✓</text><text x="48.8" y="93.2" class="terminal-1887099496-r3" clip-path="url(#terminal-1887099496-line-3)" textLength="158.6">an xml reader</text><text x="207.4" y="93.2" class="terminal-1887099496-r5" clip-path="url(#terminal-1887099496-line-3)" textLength="170.8">[xml-reader]</text><text x="0" y="117.6" class="terminal-1887099496-r6" clip-path="url(#terminal-1887099496-line-4)" textLength="24.4">├</text><text x="24.4" y="117.6" class="terminal-1887099496-r7" clip-path="url(#terminal-1887099496-line-4)" textLength="292.8">✓ xml enabled end to end</text><text x="317.2" y="117.6" class="terminal-1887099496-r8" clip-path="url(#terminal-1887099496-line-4)" textLength="170.8">[xml-wiring]</text><text x="0" y="142" class="terminal-1887099496-r6" clip-path="url(#terminal-1887099496-line-5)" textLength="24.4">└</text><text x="24.4" y="142" class="terminal-1887099496-r3" clip-path="url(#terminal-1887099496-line-5)" textLength="451.4">○ read the new README section for xml</text><text x="475.8" y="142" class="terminal-1887099496-r5" clip-path="url(#terminal-1887099496-line-5)" textLength="73.2">[n6]</text><text x="0" y="337.2" class="terminal-1887099496-r9" clip-path="url(#terminal-1887099496-line-13)" textLength="976">────────────────────────────────────────────────────────────────────────────────</text><text x="12.2" y="361.6" class="terminal-1887099496-r2" clip-path="url(#terminal-1887099496-line-14)" textLength="268.4">xml enabled end to end</text><text x="12.2" y="386" class="terminal-1887099496-r11" clip-path="url(#terminal-1887099496-line-15)" textLength="353.8">[xml-wiring] done, revision 3</text><text x="12.2" y="410.4" class="terminal-1887099496-r11" clip-path="url(#terminal-1887099496-line-16)" textLength="561.2">under: the xml source is wired in (xml-source)</text><text x="12.2" y="459.2" class="terminal-1887099496-r2" clip-path="url(#terminal-1887099496-line-18)" textLength="85.4">scope</text><text x="97.6" y="459.2" class="terminal-1887099496-r3" clip-path="url(#terminal-1887099496-line-18)" textLength="622.2">normalize/fields.py, config/defaults.py, README.md,</text><text x="939.4" y="459.2" class="terminal-1887099496-r13" clip-path="url(#terminal-1887099496-line-18)" textLength="24.4">▃▃</text><text x="12.2" y="483.6" class="terminal-1887099496-r3" clip-path="url(#terminal-1887099496-line-19)" textLength="414.8">tests/test_xmlfeed.py, cli/main.py</text><text x="12.2" y="508" class="terminal-1887099496-r2" clip-path="url(#terminal-1887099496-line-20)" textLength="85.4">check</text><text x="97.6" y="508" class="terminal-1887099496-r3" clip-path="url(#terminal-1887099496-line-20)" textLength="451.4">python3 -m unittest discover -q tests</text><text x="12.2" y="532.4" class="terminal-1887099496-r2" clip-path="url(#terminal-1887099496-line-21)" textLength="85.4">needs</text><text x="97.6" y="532.4" class="terminal-1887099496-r3" clip-path="url(#terminal-1887099496-line-21)" textLength="256.2">xml-reader, zero-rule</text><text x="12.2" y="556.8" class="terminal-1887099496-r3" clip-path="url(#terminal-1887099496-line-22)" textLength="646.6">planner: claude:59409a10 · executors: none · 3/4 done</text><text x="12.2" y="581.2" class="terminal-1887099496-r3" clip-path="url(#terminal-1887099496-line-23)" textLength="610">/xml-wiring: 1 of 1 (n next · Esc ends the search)</text></g></g></svg>