<svg class="rich-terminal" viewBox="0 0 994 635.5999999999999" xmlns="http://www.w3.org/2000/svg">
    <!-- Generated with Rich https://www.textualize.io -->
    <style>

    @font-face {
        font-family: "Fira Code";
        src: local("FiraCode-Regular"),
                url("https://cdnjs.cloudflare.com/ajax/libs/firacode/6.2.0/woff2/FiraCode-Regular.woff2") format("woff2"),
                url("https://cdnjs.cloudflare.com/ajax/libs/firacode/6.2.0/woff/FiraCode-Regular.woff") format("woff");
        font-style: normal;
        font-weight: 400;
    }
    @font-face {
        font-family: "Fira Code";
        src: local("FiraCode-Bold"),
                url("https://cdnjs.cloudflare.com/ajax/libs/firacode/6.2.0/woff2/FiraCode-Bold.woff2") format("woff2"),
                url("https://cdnjs.cloudflare.com/ajax/libs/firacode/6.2.0/woff/FiraCode-Bold.woff") format("woff");
        font-style: bold;
        font-weight: 700;
    }

    .terminal-2008285840-matrix {
        font-family: Fira Code, monospace;
        font-size: 20px;
        line-height: 24.4px;
        font-variant-east-asian: full-width;
    }

    .terminal-2008285840-title {
        font-size: 18px;
        font-weight: bold;
        font-family: arial;
    }

    .terminal-2008285840-r1 { fill: #c5c8c6 }
.terminal-2008285840-r2 { fill: #e1e1e1;font-weight: bold }
.terminal-2008285840-r3 { fill: #e0e0e0 }
.terminal-2008285840-r4 { fill: #e0e0e0;font-weight: bold }
.terminal-2008285840-r5 { fill: #4f4f4f }
.terminal-2008285840-r6 { fill: #98e024 }
.terminal-2008285840-r7 { fill: #a1a1a1 }
.terminal-2008285840-r8 { fill: #ddedf9;font-weight: bold }
.terminal-2008285840-r9 { fill: #92c5ec;font-weight: bold }
.terminal-2008285840-r10 { fill: #0178d4 }
.terminal-2008285840-r11 { fill: #999999 }
.terminal-2008285840-r12 { fill: #fd971f }
.terminal-2008285840-r13 { fill: #9d9d9d }
    </style>

    <defs>
    <clipPath id="terminal-2008285840-clip-terminal">
      <rect x="0" y="0" width="975.0" height="584.5999999999999" />
    </clipPath>
    <clipPath id="terminal-2008285840-line-0">
    <rect x="0" y="1.5" width="976" height="24.65"/>
            </clipPath>
<clipPath id="terminal-2008285840-line-1">
    <rect x="0" y="25.9" width="976" height="24.65"/>
            </clipPath>
<clipPath id="terminal-2008285840-line-2">
    <rect x="0" y="50.3" width="976" height="24.65"/>
            </clipPath>
<clipPath id="terminal-2008285840-line-3">
    <rect x="0" y="74.7" width="976" height="24.65"/>
            </clipPath>
<clipPath id="terminal-2008285840-line-4">
    <rect x="0" y="99.1" width="976" height="24.65"/>
            </clipPath>
<clipPath id="terminal-2008285840-line-5">
    <rect x="0" y="123.5" width="976" height="24.65"/>
            </clipPath>
<clipPath id="terminal-2008285840-line-6">
    <rect x="0" y="147.9" width="976" height="24.65"/>
            </clipPath>
<clipPath id="terminal-2008285840-line-7">
    <rect x="0" y="172.3" width="976" height="24.65"/>
            </clipPath>
<clipPath id="terminal-2008285840-line-8">
    <rect x="0" y="196.7" width="976" height="24.65"/>
            </clipPath>
<clipPath id="terminal-2008285840-line-9">
    <rect x="0" y="221.1" width="976" height="24.65"/>
            </clipPath>
<clipPath id="terminal-2008285840-line-10">
    <rect x="0" y="245.5" width="976" height="24.65"/>
            </clipPath>
<clipPath id="terminal-2008285840-line-11">
    <rect x="0" y="269.9" width="976" height="24.65"/>
            </clipPath>
<clipPath id="terminal-2008285840-line-12">
    <rect x="0" y="294.3" width="976" height="24.65"/>
            </clipPath>
<clipPath id="terminal-2008285840-line-13">
    <rect x="0" y="318.7" width="976" height="24.65"/>
            </clipPath>
<clipPath id="terminal-2008285840-line-14">
    <rect x="0" y="343.1" width="976" height="24.65"/>
            </clipPath>
<clipPath id="terminal-2008285840-line-15">
    <rect x="0" y="367.5" width="976" height="24.65"/>
            </clipPath>
<clipPath id="terminal-2008285840-line-16">
    <rect x="0" y="391.9" width="976" height="24.65"/>
            </clipPath>
<clipPath id="terminal-2008285840-line-17">
    <rect x="0" y="416.3" width="976" height="24.65"/>
            </clipPath>
<clipPath id="terminal-2008285840-line-18">
    <rect x="0" y="440.7" width="976" height="24.65"/>
            </clipPath>
<clipPath id="terminal-2008285840-line-19">
    <rect x="0" y="465.1" width="976" height="24.65"/>
            </clipPath>
<clipPath id="terminal-2008285840-line-20">
    <rect x="0" y="489.5" width="976" height="24.65"/>
            </clipPath>
<clipPath id="terminal-2008285840-line-21">
    <rect x="0" y="513.9" width="976" height="24.65"/>
            </clipPath>
<clipPath id="terminal-2008285840-line-22">
    <rect x="0" y="538.3" width="976" height="24.65"/>
            </clipPath>
    </defs>

    <rect fill="#292929" stroke="rgba(255,255,255,0.35)" stroke-width="1" x="1" y="1" width="992" height="633.6" rx="8"/><text class="terminal-2008285840-title" fill="#c5c8c6" text-anchor="middle" x="496" y="27">stepped-up-pane,&#160;a&#160;scripted&#160;stand-in&#160;for&#160;Token&#160;Factory,&#160;not&#160;Nemotron</text>
            <g transform="translate(26,22)">
            <circle cx="0" cy="0" r="7" fill="#ff5f57"/>
            <circle cx="22" cy="0" r="7" fill="#febc2e"/>
            <circle cx="44" cy="0" r="7" fill="#28c840"/>
            </g>
        
    <g transform="translate(9, 41)" clip-path="url(#terminal-2008285840-clip-terminal)">
    <rect fill="#1b1b1b" x="0" y="1.5" width="12.2" height="24.65" shape-rendering="crispEdges"/><rect fill="#1b1b1b" x="12.2" y="1.5" width="231.8" height="24.65" shape-rendering="crispEdges"/><rect fill="#1b1b1b" x="244" y="1.5" width="719.8" height="24.65" shape-rendering="crispEdges"/><rect fill="#1b1b1b" x="963.8" y="1.5" width="12.2" height="24.65" shape-rendering="crispEdges"/><rect fill="#272727" x="0" y="25.9" width="24.4" height="24.65" shape-rendering="crispEdges"/><rect fill="#272727" x="24.4" y="25.9" width="24.4" height="24.65" shape-rendering="crispEdges"/><rect fill="#272727" x="48.8" y="25.9" width="793" height="24.65" shape-rendering="crispEdges"/><rect fill="#272727" x="841.8" y="25.9" width="122" height="24.65" shape-rendering="crispEdges"/><rect fill="#272727" x="963.8" y="25.9" width="12.2" height="24.65" shape-rendering="crispEdges"/><rect fill="#272727" x="0" y="50.3" width="24.4" height="24.65" shape-rendering="crispEdges"/><rect fill="#272727" x="24.4" y="50.3" width="24.4" height="24.65" shape-rendering="crispEdges"/><rect fill="#272727" x="48.8" y="50.3" width="24.4" height="24.65" shape-rendering="crispEdges"/><rect fill="#272727" x="73.2" y="50.3" width="646.6" height="24.65" shape-rendering="crispEdges"/><rect fill="#272727" x="719.8" y="50.3" width="122" height="24.65" shape-rendering="crispEdges"/><rect fill="#272727" x="841.8" y="50.3" width="122" height="24.65" shape-rendering="crispEdges"/><rect fill="#272727" x="963.8" y="50.3" width="12.2" height="24.65" shape-rendering="crispEdges"/><rect fill="#272727" x="0" y="74.7" width="24.4" height="24.65" shape-rendering="crispEdges"/><rect fill="#272727" x="24.4" y="74.7" width="24.4" height="24.65" shape-rendering="crispEdges"/><rect fill="#0178d4" x="48.8" y="74.7" width="24.4" height="24.65" shape-rendering="crispEdges"/><rect fill="#0178d4" x="73.2" y="74.7" width="646.6" height="24.65" shape-rendering="crispEdges"/><rect fill="#0178d4" x="719.8" y="74.7" width="122" height="24.65" shape-rendering="crispEdges"/><rect fill="#0178d4" x="841.8" y="74.7" width="122" height="24.65" shape-rendering="crispEdges"/><rect fill="#272727" x="963.8" y="74.7" width="12.2" height="24.65" shape-rendering="crispEdges"/><rect fill="#121212" x="0" y="99.1" width="976" height="24.65" shape-rendering="crispEdges"/><rect fill="#121212" x="0" y="123.5" width="12.2" height="24.65" shape-rendering="crispEdges"/><rect fill="#121212" x="12.2" y="123.5" width="195.2" height="24.65" shape-rendering="crispEdges"/><rect fill="#121212" x="207.4" y="123.5" width="756.4" height="24.65" shape-rendering="crispEdges"/><rect fill="#121212" x="963.8" y="123.5" width="12.2" height="24.65" shape-rendering="crispEdges"/><rect fill="#121212" x="0" y="147.9" width="12.2" height="24.65" shape-rendering="crispEdges"/><rect fill="#121212" x="12.2" y="147.9" width="97.6" height="24.65" shape-rendering="crispEdges"/><rect fill="#121212" x="109.8" y="147.9" width="36.6" height="24.65" shape-rendering="crispEdges"/><rect fill="#121212" x="146.4" y="147.9" width="85.4" height="24.65" shape-rendering="crispEdges"/><rect fill="#121212" x="231.8" y="147.9" width="732" height="24.65" shape-rendering="crispEdges"/><rect fill="#121212" x="963.8" y="147.9" width="12.2" height="24.65" shape-rendering="crispEdges"/><rect fill="#121212" x="0" y="172.3" width="12.2" height="24.65" shape-rendering="crispEdges"/><rect fill="#121212" x="12.2" y="172.3" width="122" height="24.65" shape-rendering="crispEdges"/><rect fill="#121212" x="134.2" y="172.3" width="402.6" height="24.65" shape-rendering="crispEdges"/><rect fill="#121212" x="536.8" y="172.3" width="427" height="24.65" shape-rendering="crispEdges"/><rect fill="#121212" x="963.8" y="172.3" width="12.2" height="24.65" shape-rendering="crispEdges"/><rect fill="#121212" x="0" y="196.7" width="12.2" height="24.65" shape-rendering="crispEdges"/><rect fill="#121212" x="12.2" y="196.7" width="122" height="24.65" shape-rendering="crispEdges"/><rect fill="#121212" x="134.2" y="196.7" width="475.8" height="24.65" shape-rendering="crispEdges"/><rect fill="#121212" x="610" y="196.7" width="353.8" height="24.65" shape-rendering="crispEdges"/><rect fill="#121212" x="963.8" y="196.7" width="12.2" height="24.65" shape-rendering="crispEdges"/><rect fill="#121212" x="0" y="221.1" width="12.2" height="24.65" shape-rendering="crispEdges"/><rect fill="#121212" x="12.2" y="221.1" width="122" height="24.65" shape-rendering="crispEdges"/><rect fill="#121212" x="134.2" y="221.1" width="805.2" height="24.65" shape-rendering="crispEdges"/><rect fill="#121212" x="939.4" y="221.1" width="24.4" height="24.65" shape-rendering="crispEdges"/><rect fill="#121212" x="963.8" y="221.1" width="12.2" height="24.65" shape-rendering="crispEdges"/><rect fill="#121212" x="0" y="245.5" width="12.2" height="24.65" shape-rendering="crispEdges"/><rect fill="#121212" x="12.2" y="245.5" width="549" height="24.65" shape-rendering="crispEdges"/><rect fill="#121212" x="561.2" y="245.5" width="402.6" height="24.65" shape-rendering="crispEdges"/><rect fill="#121212" x="963.8" y="245.5" width="12.2" height="24.65" shape-rendering="crispEdges"/><rect fill="#121212" x="0" y="269.9" width="12.2" height="24.65" shape-rendering="crispEdges"/><rect fill="#121212" x="12.2" y="269.9" width="0" height="24.65" shape-rendering="crispEdges"/><rect fill="#121212" x="12.2" y="269.9" width="951.6" height="24.65" shape-rendering="crispEdges"/><rect fill="#121212" x="963.8" y="269.9" width="12.2" height="24.65" shape-rendering="crispEdges"/><rect fill="#121212" x="0" y="294.3" width="12.2" height="24.65" shape-rendering="crispEdges"/><rect fill="#121212" x="12.2" y="294.3" width="122" height="24.65" shape-rendering="crispEdges"/><rect fill="#121212" x="134.2" y="294.3" width="195.2" height="24.65" shape-rendering="crispEdges"/><rect fill="#121212" x="329.4" y="294.3" width="634.4" height="24.65" shape-rendering="crispEdges"/><rect fill="#121212" x="963.8" y="294.3" width="12.2" height="24.65" shape-rendering="crispEdges"/><rect fill="#121212" x="0" y="318.7" width="12.2" height="24.65" shape-rendering="crispEdges"/><rect fill="#121212" x="12.2" y="318.7" width="122" height="24.65" shape-rendering="crispEdges"/><rect fill="#121212" x="134.2" y="318.7" width="73.2" height="24.65" shape-rendering="crispEdges"/><rect fill="#121212" x="207.4" y="318.7" width="756.4" height="24.65" shape-rendering="crispEdges"/><rect fill="#121212" x="963.8" y="318.7" width="12.2" height="24.65" shape-rendering="crispEdges"/><rect fill="#121212" x="0" y="343.1" width="12.2" height="24.65" shape-rendering="crispEdges"/><rect fill="#121212" x="12.2" y="343.1" width="122" height="24.65" shape-rendering="crispEdges"/><rect fill="#121212" x="134.2" y="343.1" width="658.8" height="24.65" shape-rendering="crispEdges"/><rect fill="#121212" x="793" y="343.1" width="170.8" height="24.65" shape-rendering="crispEdges"/><rect fill="#121212" x="963.8" y="343.1" width="12.2" height="24.65" shape-rendering="crispEdges"/><rect fill="#121212" x="0" y="367.5" width="12.2" height="24.65" shape-rendering="crispEdges"/><rect fill="#121212" x="12.2" y="367.5" width="122" height="24.65" shape-rendering="crispEdges"/><rect fill="#121212" x="134.2" y="367.5" width="671" height="24.65" shape-rendering="crispEdges"/><rect fill="#121212" x="805.2" y="367.5" width="158.6" height="24.65" shape-rendering="crispEdges"/><rect fill="#121212" x="963.8" y="367.5" width="12.2" height="24.65" shape-rendering="crispEdges"/><rect fill="#121212" x="0" y="391.9" width="12.2" height="24.65" shape-rendering="crispEdges"/><rect fill="#121212" x="12.2" y="391.9" width="951.6" height="24.65" shape-rendering="crispEdges"/><rect fill="#121212" x="963.8" y="391.9" width="12.2" height="24.65" shape-rendering="crispEdges"/><rect fill="#121212" x="0" y="416.3" width="12.2" height="24.65" shape-rendering="crispEdges"/><rect fill="#121212" x="12.2" y="416.3" width="951.6" height="24.65" shape-rendering="crispEdges"/><rect fill="#121212" x="963.8" y="416.3" width="12.2" height="24.65" shape-rendering="crispEdges"/><rect fill="#121212" x="0" y="440.7" width="12.2" height="24.65" shape-rendering="crispEdges"/><rect fill="#121212" x="12.2" y="440.7" width="951.6" height="24.65" shape-rendering="crispEdges"/><rect fill="#121212" x="963.8" y="440.7" width="12.2" height="24.65" shape-rendering="crispEdges"/><rect fill="#121212" x="0" y="465.1" width="12.2" height="24.65" shape-rendering="crispEdges"/><rect fill="#121212" x="12.2" y="465.1" width="951.6" height="24.65" shape-rendering="crispEdges"/><rect fill="#121212" x="963.8" y="465.1" width="12.2" height="24.65" shape-rendering="crispEdges"/><rect fill="#121212" x="0" y="489.5" width="12.2" height="24.65" shape-rendering="crispEdges"/><rect fill="#121212" x="12.2" y="489.5" width="951.6" height="24.65" shape-rendering="crispEdges"/><rect fill="#121212" x="963.8" y="489.5" width="12.2" height="24.65" shape-rendering="crispEdges"/><rect fill="#121212" x="0" y="513.9" width="12.2" height="24.65" shape-rendering="crispEdges"/><rect fill="#121212" x="12.2" y="513.9" width="951.6" height="24.65" shape-rendering="crispEdges"/><rect fill="#121212" x="963.8" y="513.9" width="12.2" height="24.65" shape-rendering="crispEdges"/><rect fill="#1b1b1b" x="0" y="538.3" width="12.2" height="24.65" shape-rendering="crispEdges"/><rect fill="#1b1b1b" x="12.2" y="538.3" width="73.2" height="24.65" shape-rendering="crispEdges"/><rect fill="#1b1b1b" x="85.4" y="538.3" width="36.6" height="24.65" shape-rendering="crispEdges"/><rect fill="#1b1b1b" x="122" y="538.3" width="109.8" height="24.65" shape-rendering="crispEdges"/><rect fill="#1b1b1b" x="231.8" y="538.3" width="36.6" height="24.65" shape-rendering="crispEdges"/><rect fill="#1b1b1b" x="268.4" y="538.3" width="122" height="24.65" shape-rendering="crispEdges"/><rect fill="#1b1b1b" x="390.4" y="538.3" width="36.6" height="24.65" shape-rendering="crispEdges"/><rect fill="#1b1b1b" x="427" y="538.3" width="97.6" height="24.65" shape-rendering="crispEdges"/><rect fill="#1b1b1b" x="524.6" y="538.3" width="36.6" height="24.65" shape-rendering="crispEdges"/><rect fill="#1b1b1b" x="561.2" y="538.3" width="170.8" height="24.65" shape-rendering="crispEdges"/><rect fill="#1b1b1b" x="732" y="538.3" width="36.6" height="24.65" shape-rendering="crispEdges"/><rect fill="#1b1b1b" x="768.6" y="538.3" width="85.4" height="24.65" shape-rendering="crispEdges"/><rect fill="#1b1b1b" x="854" y="538.3" width="109.8" height="24.65" shape-rendering="crispEdges"/><rect fill="#1b1b1b" x="963.8" y="538.3" width="12.2" height="24.65" shape-rendering="crispEdges"/><rect fill="#1b1b1b" x="0" y="562.7" width="12.2" height="24.65" shape-rendering="crispEdges"/><rect fill="#1b1b1b" x="12.2" y="562.7" width="97.6" height="24.65" shape-rendering="crispEdges"/><rect fill="#1b1b1b" x="109.8" y="562.7" width="36.6" height="24.65" shape-rendering="crispEdges"/><rect fill="#1b1b1b" x="146.4" y="562.7" width="109.8" height="24.65" shape-rendering="crispEdges"/><rect fill="#1b1b1b" x="256.2" y="562.7" width="36.6" height="24.65" shape-rendering="crispEdges"/><rect fill="#1b1b1b" x="292.8" y="562.7" width="146.4" height="24.65" shape-rendering="crispEdges"/><rect fill="#1b1b1b" x="439.2" y="562.7" width="36.6" height="24.65" shape-rendering="crispEdges"/><rect fill="#1b1b1b" x="475.8" y="562.7" width="73.2" height="24.65" shape-rendering="crispEdges"/><rect fill="#1b1b1b" x="549" y="562.7" width="36.6" height="24.65" shape-rendering="crispEdges"/><rect fill="#1b1b1b" x="585.6" y="562.7" width="73.2" height="24.65" shape-rendering="crispEdges"/><rect fill="#1b1b1b" x="658.8" y="562.7" width="305" height="24.65" shape-rendering="crispEdges"/><rect fill="#1b1b1b" x="963.8" y="562.7" width="12.2" height="24.65" shape-rendering="crispEdges"/>
    <g class="terminal-2008285840-matrix">
    <text class="terminal-2008285840-r2" x="12.2" y="20" textLength="231.8" clip-path="url(#terminal-2008285840-line-0)">the&#160;plan&#160;of&#160;~/feeds</text><text class="terminal-2008285840-r1" x="976" y="20" textLength="12.2" clip-path="url(#terminal-2008285840-line-0)">
</text><text class="terminal-2008285840-r3" x="0" y="44.4" textLength="24.4" clip-path="url(#terminal-2008285840-line-1)">▼&#160;</text><text class="terminal-2008285840-r3" x="24.4" y="44.4" textLength="24.4" clip-path="url(#terminal-2008285840-line-1)">○&#160;</text><text class="terminal-2008285840-r4" x="48.8" y="44.4" textLength="793" clip-path="url(#terminal-2008285840-line-1)">a&#160;friendlier&#160;app&#160;&#160;&#160;&#160;&#160;&#160;&#160;&#160;&#160;&#160;&#160;&#160;&#160;&#160;&#160;&#160;&#160;&#160;&#160;&#160;&#160;&#160;&#160;&#160;&#160;&#160;&#160;&#160;&#160;&#160;&#160;&#160;&#160;&#160;&#160;&#160;&#160;&#160;&#160;&#160;&#160;&#160;&#160;&#160;&#160;&#160;&#160;&#160;&#160;</text><text class="terminal-2008285840-r3" x="841.8" y="44.4" textLength="122" clip-path="url(#terminal-2008285840-line-1)">&#160;&#160;1/2&#160;done</text><text class="terminal-2008285840-r1" x="976" y="44.4" textLength="12.2" clip-path="url(#terminal-2008285840-line-1)">
</text><text class="terminal-2008285840-r5" x="0" y="68.8" textLength="24.4" clip-path="url(#terminal-2008285840-line-2)">├&#160;</text><text class="terminal-2008285840-r6" x="48.8" y="68.8" textLength="24.4" clip-path="url(#terminal-2008285840-line-2)">✓&#160;</text><text class="terminal-2008285840-r3" x="73.2" y="68.8" textLength="646.6" clip-path="url(#terminal-2008285840-line-2)">greet&#160;says&#160;hello&#160;&#160;&#160;&#160;&#160;&#160;&#160;&#160;&#160;&#160;&#160;&#160;&#160;&#160;&#160;&#160;&#160;&#160;&#160;&#160;&#160;&#160;&#160;&#160;&#160;&#160;&#160;&#160;&#160;&#160;&#160;&#160;&#160;&#160;&#160;&#160;&#160;</text><text class="terminal-2008285840-r7" x="719.8" y="68.8" textLength="122" clip-path="url(#terminal-2008285840-line-2)">&#160;&#160;greet&#160;&#160;&#160;</text><text class="terminal-2008285840-r6" x="841.8" y="68.8" textLength="122" clip-path="url(#terminal-2008285840-line-2)">&#160;&#160;done&#160;&#160;&#160;&#160;</text><text class="terminal-2008285840-r1" x="976" y="68.8" textLength="12.2" clip-path="url(#terminal-2008285840-line-2)">
</text><text class="terminal-2008285840-r5" x="0" y="93.2" textLength="24.4" clip-path="url(#terminal-2008285840-line-3)">└&#160;</text><text class="terminal-2008285840-r8" x="48.8" y="93.2" textLength="24.4" clip-path="url(#terminal-2008285840-line-3)">●&#160;</text><text class="terminal-2008285840-r8" x="73.2" y="93.2" textLength="646.6" clip-path="url(#terminal-2008285840-line-3)">bye&#160;says&#160;goodbye&#160;&#160;&#160;&#160;&#160;&#160;&#160;&#160;&#160;&#160;&#160;&#160;&#160;&#160;&#160;&#160;&#160;&#160;&#160;&#160;&#160;&#160;&#160;&#160;&#160;&#160;&#160;&#160;&#160;&#160;&#160;&#160;&#160;&#160;&#160;&#160;&#160;</text><text class="terminal-2008285840-r9" x="719.8" y="93.2" textLength="122" clip-path="url(#terminal-2008285840-line-3)">&#160;&#160;farewell</text><text class="terminal-2008285840-r8" x="841.8" y="93.2" textLength="122" clip-path="url(#terminal-2008285840-line-3)">&#160;&#160;running&#160;</text><text class="terminal-2008285840-r1" x="976" y="93.2" textLength="12.2" clip-path="url(#terminal-2008285840-line-3)">
</text><text class="terminal-2008285840-r10" x="0" y="117.6" textLength="976" clip-path="url(#terminal-2008285840-line-4)">────────────────────────────────────────────────────────────────────────────────</text><text class="terminal-2008285840-r1" x="976" y="117.6" textLength="12.2" clip-path="url(#terminal-2008285840-line-4)">
</text><text class="terminal-2008285840-r4" x="12.2" y="142" textLength="195.2" clip-path="url(#terminal-2008285840-line-5)">bye&#160;says&#160;goodbye</text><text class="terminal-2008285840-r1" x="976" y="142" textLength="12.2" clip-path="url(#terminal-2008285840-line-5)">
</text><text class="terminal-2008285840-r11" x="12.2" y="166.4" textLength="97.6" clip-path="url(#terminal-2008285840-line-6)">farewell</text><text class="terminal-2008285840-r3" x="109.8" y="166.4" textLength="36.6" clip-path="url(#terminal-2008285840-line-6)">&#160;·&#160;</text><text class="terminal-2008285840-r12" x="146.4" y="166.4" textLength="85.4" clip-path="url(#terminal-2008285840-line-6)">running</text><text class="terminal-2008285840-r1" x="976" y="166.4" textLength="12.2" clip-path="url(#terminal-2008285840-line-6)">
</text><text class="terminal-2008285840-r4" x="12.2" y="190.8" textLength="122" clip-path="url(#terminal-2008285840-line-7)">executor&#160;&#160;</text><text class="terminal-2008285840-r3" x="134.2" y="190.8" textLength="402.6" clip-path="url(#terminal-2008285840-line-7)">nemotron,&#160;started&#160;by&#160;graphene&#160;run</text><text class="terminal-2008285840-r1" x="976" y="190.8" textLength="12.2" clip-path="url(#terminal-2008285840-line-7)">
</text><text class="terminal-2008285840-r4" x="12.2" y="215.2" textLength="122" clip-path="url(#terminal-2008285840-line-8)">worktree&#160;&#160;</text><text class="terminal-2008285840-r3" x="134.2" y="215.2" textLength="475.8" clip-path="url(#terminal-2008285840-line-8)">none:&#160;it&#160;works&#160;in&#160;the&#160;repository&#160;itself</text><text class="terminal-2008285840-r1" x="976" y="215.2" textLength="12.2" clip-path="url(#terminal-2008285840-line-8)">
</text><text class="terminal-2008285840-r4" x="12.2" y="239.6" textLength="122" clip-path="url(#terminal-2008285840-line-9)">last&#160;&#160;&#160;&#160;&#160;&#160;</text><text class="terminal-2008285840-r3" x="134.2" y="239.6" textLength="805.2" clip-path="url(#terminal-2008285840-line-9)">nemotron&#160;executor&#160;·&#160;nvidia/Nemotron-3-Super-fake&#160;·&#160;local,&#160;3&#160;forks&#160;</text><text class="terminal-2008285840-r1" x="976" y="239.6" textLength="12.2" clip-path="url(#terminal-2008285840-line-9)">
</text><text class="terminal-2008285840-r3" x="12.2" y="264" textLength="549" clip-path="url(#terminal-2008285840-line-10)">&#160;&#160;&#160;&#160;&#160;&#160;&#160;&#160;&#160;&#160;placement&#160;·&#160;leaf&#160;farewell&#160;·&#160;1&#160;s&#160;ago</text><text class="terminal-2008285840-r1" x="976" y="264" textLength="12.2" clip-path="url(#terminal-2008285840-line-10)">
</text><text class="terminal-2008285840-r1" x="976" y="288.4" textLength="12.2" clip-path="url(#terminal-2008285840-line-11)">
</text><text class="terminal-2008285840-r4" x="12.2" y="312.8" textLength="122" clip-path="url(#terminal-2008285840-line-12)">why&#160;&#160;&#160;&#160;&#160;&#160;&#160;</text><text class="terminal-2008285840-r3" x="134.2" y="312.8" textLength="195.2" clip-path="url(#terminal-2008285840-line-12)">a&#160;friendlier&#160;app</text><text class="terminal-2008285840-r1" x="976" y="312.8" textLength="12.2" clip-path="url(#terminal-2008285840-line-12)">
</text><text class="terminal-2008285840-r4" x="12.2" y="337.2" textLength="122" clip-path="url(#terminal-2008285840-line-13)">scope&#160;&#160;&#160;&#160;&#160;</text><text class="terminal-2008285840-r3" x="134.2" y="337.2" textLength="73.2" clip-path="url(#terminal-2008285840-line-13)">bye.py</text><text class="terminal-2008285840-r1" x="976" y="337.2" textLength="12.2" clip-path="url(#terminal-2008285840-line-13)">
</text><text class="terminal-2008285840-r4" x="12.2" y="361.6" textLength="122" clip-path="url(#terminal-2008285840-line-14)">check&#160;&#160;&#160;&#160;&#160;</text><text class="terminal-2008285840-r3" x="134.2" y="361.6" textLength="658.8" clip-path="url(#terminal-2008285840-line-14)">python3&#160;-c&#160;&#x27;import&#160;bye;&#160;assert&#160;bye.bye()&#160;==&#160;&quot;goodbye&quot;&#x27;</text><text class="terminal-2008285840-r1" x="976" y="361.6" textLength="12.2" clip-path="url(#terminal-2008285840-line-14)">
</text><text class="terminal-2008285840-r4" x="12.2" y="386" textLength="122" clip-path="url(#terminal-2008285840-line-15)">bill&#160;&#160;&#160;&#160;&#160;&#160;</text><text class="terminal-2008285840-r3" x="134.2" y="386" textLength="671" clip-path="url(#terminal-2008285840-line-15)">$0.0003&#160;at&#160;list&#160;price&#160;·&#160;11&#160;calls&#160;·&#160;Nemotron-3-Nano-fake</text><text class="terminal-2008285840-r1" x="976" y="386" textLength="12.2" clip-path="url(#terminal-2008285840-line-15)">
</text><text class="terminal-2008285840-r1" x="976" y="410.4" textLength="12.2" clip-path="url(#terminal-2008285840-line-16)">
</text><text class="terminal-2008285840-r1" x="976" y="434.8" textLength="12.2" clip-path="url(#terminal-2008285840-line-17)">
</text><text class="terminal-2008285840-r1" x="976" y="459.2" textLength="12.2" clip-path="url(#terminal-2008285840-line-18)">
</text><text class="terminal-2008285840-r1" x="976" y="483.6" textLength="12.2" clip-path="url(#terminal-2008285840-line-19)">
</text><text class="terminal-2008285840-r1" x="976" y="508" textLength="12.2" clip-path="url(#terminal-2008285840-line-20)">
</text><text class="terminal-2008285840-r1" x="976" y="532.4" textLength="12.2" clip-path="url(#terminal-2008285840-line-21)">
</text><text class="terminal-2008285840-r3" x="12.2" y="556.8" textLength="73.2" clip-path="url(#terminal-2008285840-line-22)">you:&#160;0</text><text class="terminal-2008285840-r13" x="85.4" y="556.8" textLength="36.6" clip-path="url(#terminal-2008285840-line-22)">&#160;·&#160;</text><text class="terminal-2008285840-r12" x="122" y="556.8" textLength="109.8" clip-path="url(#terminal-2008285840-line-22)">1&#160;running</text><text class="terminal-2008285840-r13" x="231.8" y="556.8" textLength="36.6" clip-path="url(#terminal-2008285840-line-22)">&#160;·&#160;</text><text class="terminal-2008285840-r3" x="268.4" y="556.8" textLength="122" clip-path="url(#terminal-2008285840-line-22)">none&#160;ready</text><text class="terminal-2008285840-r13" x="390.4" y="556.8" textLength="36.6" clip-path="url(#terminal-2008285840-line-22)">&#160;·&#160;</text><text class="terminal-2008285840-r3" x="427" y="556.8" textLength="97.6" clip-path="url(#terminal-2008285840-line-22)">1/2&#160;done</text><text class="terminal-2008285840-r13" x="524.6" y="556.8" textLength="36.6" clip-path="url(#terminal-2008285840-line-22)">&#160;·&#160;</text><text class="terminal-2008285840-r3" x="561.2" y="556.8" textLength="170.8" clip-path="url(#terminal-2008285840-line-22)">plan&#160;first:&#160;on</text><text class="terminal-2008285840-r13" x="732" y="556.8" textLength="36.6" clip-path="url(#terminal-2008285840-line-22)">&#160;·&#160;</text><text class="terminal-2008285840-r13" x="768.6" y="556.8" textLength="85.4" clip-path="url(#terminal-2008285840-line-22)">$0.0005</text><text class="terminal-2008285840-r1" x="976" y="556.8" textLength="12.2" clip-path="url(#terminal-2008285840-line-22)">
</text><text class="terminal-2008285840-r3" x="12.2" y="581.2" textLength="97.6" clip-path="url(#terminal-2008285840-line-23)">l&#160;output</text><text class="terminal-2008285840-r13" x="109.8" y="581.2" textLength="36.6" clip-path="url(#terminal-2008285840-line-23)">&#160;·&#160;</text><text class="terminal-2008285840-r3" x="146.4" y="581.2" textLength="109.8" clip-path="url(#terminal-2008285840-line-23)">x&#160;release</text><text class="terminal-2008285840-r13" x="256.2" y="581.2" textLength="36.6" clip-path="url(#terminal-2008285840-line-23)">&#160;·&#160;</text><text class="terminal-2008285840-r3" x="292.8" y="581.2" textLength="146.4" clip-path="url(#terminal-2008285840-line-23)">Enter&#160;record</text><text class="terminal-2008285840-r13" x="439.2" y="581.2" textLength="36.6" clip-path="url(#terminal-2008285840-line-23)">&#160;·&#160;</text><text class="terminal-2008285840-r3" x="475.8" y="581.2" textLength="73.2" clip-path="url(#terminal-2008285840-line-23)">?&#160;help</text><text class="terminal-2008285840-r13" x="549" y="581.2" textLength="36.6" clip-path="url(#terminal-2008285840-line-23)">&#160;·&#160;</text><text class="terminal-2008285840-r3" x="585.6" y="581.2" textLength="73.2" clip-path="url(#terminal-2008285840-line-23)">q&#160;quit</text>
    </g>
    </g>
</svg>
