<svg class="rich-terminal" viewBox="0 0 1482 952.8" xmlns="http://www.w3.org/2000/svg">
    <!-- Generated with Rich https://www.textualize.io -->
    <style>

    @font-face {
        font-family: "Fira Code";
        src: local("FiraCode-Regular"),
                url("https://cdnjs.cloudflare.com/ajax/libs/firacode/6.2.0/woff2/FiraCode-Regular.woff2") format("woff2"),
                url("https://cdnjs.cloudflare.com/ajax/libs/firacode/6.2.0/woff/FiraCode-Regular.woff") format("woff");
        font-style: normal;
        font-weight: 400;
    }
    @font-face {
        font-family: "Fira Code";
        src: local("FiraCode-Bold"),
                url("https://cdnjs.cloudflare.com/ajax/libs/firacode/6.2.0/woff2/FiraCode-Bold.woff2") format("woff2"),
                url("https://cdnjs.cloudflare.com/ajax/libs/firacode/6.2.0/woff/FiraCode-Bold.woff") format("woff");
        font-style: bold;
        font-weight: 700;
    }

    .terminal-2361398507-matrix {
        font-family: Fira Code, monospace;
        font-size: 20px;
        line-height: 24.4px;
        font-variant-east-asian: full-width;
    }

    .terminal-2361398507-title {
        font-size: 18px;
        font-weight: bold;
        font-family: arial;
    }

    .terminal-2361398507-r1 { fill: #c5c8c6 }
.terminal-2361398507-r2 { fill: #dadada;font-weight: bold }
.terminal-2361398507-r3 { fill: #dadada }
.terminal-2361398507-r4 { fill: #0087d7 }
.terminal-2361398507-r5 { fill: #4e4e4e }
.terminal-2361398507-r6 { fill: #87d700 }
.terminal-2361398507-r7 { fill: #9e9e9e }
.terminal-2361398507-r8 { fill: #949494 }
.terminal-2361398507-r9 { fill: #ff005f }
.terminal-2361398507-r10 { fill: #d7ffff;font-weight: bold }
.terminal-2361398507-r11 { fill: #87d7ff;font-weight: bold }
    </style>

    <defs>
    <clipPath id="terminal-2361398507-clip-terminal">
      <rect x="0" y="0" width="1463.0" height="901.8" />
    </clipPath>
    <clipPath id="terminal-2361398507-line-0">
    <rect x="0" y="1.5" width="1464" height="24.65"/>
            </clipPath>
<clipPath id="terminal-2361398507-line-1">
    <rect x="0" y="25.9" width="1464" height="24.65"/>
            </clipPath>
<clipPath id="terminal-2361398507-line-2">
    <rect x="0" y="50.3" width="1464" height="24.65"/>
            </clipPath>
<clipPath id="terminal-2361398507-line-3">
    <rect x="0" y="74.7" width="1464" height="24.65"/>
            </clipPath>
<clipPath id="terminal-2361398507-line-4">
    <rect x="0" y="99.1" width="1464" height="24.65"/>
            </clipPath>
<clipPath id="terminal-2361398507-line-5">
    <rect x="0" y="123.5" width="1464" height="24.65"/>
            </clipPath>
<clipPath id="terminal-2361398507-line-6">
    <rect x="0" y="147.9" width="1464" height="24.65"/>
            </clipPath>
<clipPath id="terminal-2361398507-line-7">
    <rect x="0" y="172.3" width="1464" height="24.65"/>
            </clipPath>
<clipPath id="terminal-2361398507-line-8">
    <rect x="0" y="196.7" width="1464" height="24.65"/>
            </clipPath>
<clipPath id="terminal-2361398507-line-9">
    <rect x="0" y="221.1" width="1464" height="24.65"/>
            </clipPath>
<clipPath id="terminal-2361398507-line-10">
    <rect x="0" y="245.5" width="1464" height="24.65"/>
            </clipPath>
<clipPath id="terminal-2361398507-line-11">
    <rect x="0" y="269.9" width="1464" height="24.65"/>
            </clipPath>
<clipPath id="terminal-2361398507-line-12">
    <rect x="0" y="294.3" width="1464" height="24.65"/>
            </clipPath>
<clipPath id="terminal-2361398507-line-13">
    <rect x="0" y="318.7" width="1464" height="24.65"/>
            </clipPath>
<clipPath id="terminal-2361398507-line-14">
    <rect x="0" y="343.1" width="1464" height="24.65"/>
            </clipPath>
<clipPath id="terminal-2361398507-line-15">
    <rect x="0" y="367.5" width="1464" height="24.65"/>
            </clipPath>
<clipPath id="terminal-2361398507-line-16">
    <rect x="0" y="391.9" width="1464" height="24.65"/>
            </clipPath>
<clipPath id="terminal-2361398507-line-17">
    <rect x="0" y="416.3" width="1464" height="24.65"/>
            </clipPath>
<clipPath id="terminal-2361398507-line-18">
    <rect x="0" y="440.7" width="1464" height="24.65"/>
            </clipPath>
<clipPath id="terminal-2361398507-line-19">
    <rect x="0" y="465.1" width="1464" height="24.65"/>
            </clipPath>
<clipPath id="terminal-2361398507-line-20">
    <rect x="0" y="489.5" width="1464" height="24.65"/>
            </clipPath>
<clipPath id="terminal-2361398507-line-21">
    <rect x="0" y="513.9" width="1464" height="24.65"/>
            </clipPath>
<clipPath id="terminal-2361398507-line-22">
    <rect x="0" y="538.3" width="1464" height="24.65"/>
            </clipPath>
<clipPath id="terminal-2361398507-line-23">
    <rect x="0" y="562.7" width="1464" height="24.65"/>
            </clipPath>
<clipPath id="terminal-2361398507-line-24">
    <rect x="0" y="587.1" width="1464" height="24.65"/>
            </clipPath>
<clipPath id="terminal-2361398507-line-25">
    <rect x="0" y="611.5" width="1464" height="24.65"/>
            </clipPath>
<clipPath id="terminal-2361398507-line-26">
    <rect x="0" y="635.9" width="1464" height="24.65"/>
            </clipPath>
<clipPath id="terminal-2361398507-line-27">
    <rect x="0" y="660.3" width="1464" height="24.65"/>
            </clipPath>
<clipPath id="terminal-2361398507-line-28">
    <rect x="0" y="684.7" width="1464" height="24.65"/>
            </clipPath>
<clipPath id="terminal-2361398507-line-29">
    <rect x="0" y="709.1" width="1464" height="24.65"/>
            </clipPath>
<clipPath id="terminal-2361398507-line-30">
    <rect x="0" y="733.5" width="1464" height="24.65"/>
            </clipPath>
<clipPath id="terminal-2361398507-line-31">
    <rect x="0" y="757.9" width="1464" height="24.65"/>
            </clipPath>
<clipPath id="terminal-2361398507-line-32">
    <rect x="0" y="782.3" width="1464" height="24.65"/>
            </clipPath>
<clipPath id="terminal-2361398507-line-33">
    <rect x="0" y="806.7" width="1464" height="24.65"/>
            </clipPath>
<clipPath id="terminal-2361398507-line-34">
    <rect x="0" y="831.1" width="1464" height="24.65"/>
            </clipPath>
<clipPath id="terminal-2361398507-line-35">
    <rect x="0" y="855.5" width="1464" height="24.65"/>
            </clipPath>
    </defs>

    <rect fill="#292929" stroke="rgba(255,255,255,0.35)" stroke-width="1" x="1" y="1" width="1480" height="950.8" rx="8"/><text class="terminal-2361398507-title" fill="#c5c8c6" text-anchor="middle" x="740" y="27">graphene&#160;watch&#160;·&#160;120x36&#160;·&#160;after</text>
            <g transform="translate(26,22)">
            <circle cx="0" cy="0" r="7" fill="#ff5f57"/>
            <circle cx="22" cy="0" r="7" fill="#febc2e"/>
            <circle cx="44" cy="0" r="7" fill="#28c840"/>
            </g>
        
    <g transform="translate(9, 41)" clip-path="url(#terminal-2361398507-clip-terminal)">
    <rect fill="#1c1c1c" x="0" y="1.5" width="12.2" height="24.65" shape-rendering="crispEdges"/><rect fill="#1c1c1c" x="12.2" y="1.5" width="353.8" height="24.65" shape-rendering="crispEdges"/><rect fill="#262626" x="0" y="25.9" width="48.8" height="24.65" shape-rendering="crispEdges"/><rect fill="#262626" x="48.8" y="25.9" width="671" height="24.65" shape-rendering="crispEdges"/><rect fill="#262626" x="719.8" y="25.9" width="122" height="24.65" shape-rendering="crispEdges"/><rect fill="#262626" x="841.8" y="25.9" width="12.2" height="24.65" shape-rendering="crispEdges"/><rect fill="#121212" x="854" y="25.9" width="12.2" height="24.65" shape-rendering="crispEdges"/><rect fill="#121212" x="866.2" y="25.9" width="12.2" height="24.65" shape-rendering="crispEdges"/><rect fill="#121212" x="878.4" y="25.9" width="427" height="24.65" shape-rendering="crispEdges"/><rect fill="#262626" x="0" y="50.3" width="24.4" height="24.65" shape-rendering="crispEdges"/><rect fill="#262626" x="24.4" y="50.3" width="24.4" height="24.65" shape-rendering="crispEdges"/><rect fill="#262626" x="48.8" y="50.3" width="24.4" height="24.65" shape-rendering="crispEdges"/><rect fill="#262626" x="73.2" y="50.3" width="500.2" height="24.65" shape-rendering="crispEdges"/><rect fill="#262626" x="573.4" y="50.3" width="146.4" height="24.65" shape-rendering="crispEdges"/><rect fill="#262626" x="719.8" y="50.3" width="122" height="24.65" shape-rendering="crispEdges"/><rect fill="#262626" x="841.8" y="50.3" width="12.2" height="24.65" shape-rendering="crispEdges"/><rect fill="#121212" x="854" y="50.3" width="12.2" height="24.65" shape-rendering="crispEdges"/><rect fill="#121212" x="866.2" y="50.3" width="12.2" height="24.65" shape-rendering="crispEdges"/><rect fill="#121212" x="878.4" y="50.3" width="24.4" height="24.65" shape-rendering="crispEdges"/><rect fill="#121212" x="902.8" y="50.3" width="36.6" height="24.65" shape-rendering="crispEdges"/><rect fill="#121212" x="939.4" y="50.3" width="61" height="24.65" shape-rendering="crispEdges"/><rect fill="#262626" x="0" y="74.7" width="24.4" height="24.65" shape-rendering="crispEdges"/><rect fill="#262626" x="24.4" y="74.7" width="48.8" height="24.65" shape-rendering="crispEdges"/><rect fill="#262626" x="73.2" y="74.7" width="500.2" height="24.65" shape-rendering="crispEdges"/><rect fill="#262626" x="573.4" y="74.7" width="146.4" height="24.65" shape-rendering="crispEdges"/><rect fill="#262626" x="719.8" y="74.7" width="122" height="24.65" shape-rendering="crispEdges"/><rect fill="#262626" x="841.8" y="74.7" width="12.2" height="24.65" shape-rendering="crispEdges"/><rect fill="#121212" x="854" y="74.7" width="12.2" height="24.65" shape-rendering="crispEdges"/><rect fill="#121212" x="866.2" y="74.7" width="12.2" height="24.65" shape-rendering="crispEdges"/><rect fill="#121212" x="878.4" y="74.7" width="402.6" height="24.65" shape-rendering="crispEdges"/><rect fill="#262626" x="0" y="99.1" width="48.8" height="24.65" shape-rendering="crispEdges"/><rect fill="#262626" x="48.8" y="99.1" width="24.4" height="24.65" shape-rendering="crispEdges"/><rect fill="#262626" x="73.2" y="99.1" width="24.4" height="24.65" shape-rendering="crispEdges"/><rect fill="#262626" x="97.6" y="99.1" width="475.8" height="24.65" shape-rendering="crispEdges"/><rect fill="#262626" x="573.4" y="99.1" width="146.4" height="24.65" shape-rendering="crispEdges"/><rect fill="#262626" x="719.8" y="99.1" width="122" height="24.65" shape-rendering="crispEdges"/><rect fill="#262626" x="841.8" y="99.1" width="12.2" height="24.65" shape-rendering="crispEdges"/><rect fill="#121212" x="854" y="99.1" width="12.2" height="24.65" shape-rendering="crispEdges"/><rect fill="#262626" x="0" y="123.5" width="48.8" height="24.65" shape-rendering="crispEdges"/><rect fill="#262626" x="48.8" y="123.5" width="524.6" height="24.65" shape-rendering="crispEdges"/><rect fill="#262626" x="573.4" y="123.5" width="146.4" height="24.65" shape-rendering="crispEdges"/><rect fill="#262626" x="719.8" y="123.5" width="122" height="24.65" shape-rendering="crispEdges"/><rect fill="#262626" x="841.8" y="123.5" width="12.2" height="24.65" shape-rendering="crispEdges"/><rect fill="#121212" x="854" y="123.5" width="12.2" height="24.65" shape-rendering="crispEdges"/><rect fill="#121212" x="866.2" y="123.5" width="12.2" height="24.65" shape-rendering="crispEdges"/><rect fill="#121212" x="878.4" y="123.5" width="85.4" height="24.65" shape-rendering="crispEdges"/><rect fill="#121212" x="963.8" y="123.5" width="439.2" height="24.65" shape-rendering="crispEdges"/><rect fill="#262626" x="0" y="147.9" width="48.8" height="24.65" shape-rendering="crispEdges"/><rect fill="#262626" x="48.8" y="147.9" width="24.4" height="24.65" shape-rendering="crispEdges"/><rect fill="#0087d7" x="73.2" y="147.9" width="500.2" height="24.65" shape-rendering="crispEdges"/><rect fill="#0087d7" x="573.4" y="147.9" width="146.4" height="24.65" shape-rendering="crispEdges"/><rect fill="#0087d7" x="719.8" y="147.9" width="122" height="24.65" shape-rendering="crispEdges"/><rect fill="#262626" x="841.8" y="147.9" width="12.2" height="24.65" shape-rendering="crispEdges"/><rect fill="#121212" x="854" y="147.9" width="12.2" height="24.65" shape-rendering="crispEdges"/><rect fill="#121212" x="866.2" y="147.9" width="12.2" height="24.65" shape-rendering="crispEdges"/><rect fill="#121212" x="878.4" y="147.9" width="427" height="24.65" shape-rendering="crispEdges"/><rect fill="#121212" x="1305.4" y="147.9" width="122" height="24.65" shape-rendering="crispEdges"/><rect fill="#262626" x="0" y="172.3" width="841.8" height="24.65" shape-rendering="crispEdges"/><rect fill="#262626" x="841.8" y="172.3" width="12.2" height="24.65" shape-rendering="crispEdges"/><rect fill="#121212" x="854" y="172.3" width="12.2" height="24.65" shape-rendering="crispEdges"/><rect fill="#121212" x="866.2" y="172.3" width="12.2" height="24.65" shape-rendering="crispEdges"/><rect fill="#121212" x="878.4" y="172.3" width="85.4" height="24.65" shape-rendering="crispEdges"/><rect fill="#121212" x="963.8" y="172.3" width="109.8" height="24.65" shape-rendering="crispEdges"/><rect fill="#262626" x="0" y="196.7" width="841.8" height="24.65" shape-rendering="crispEdges"/><rect fill="#262626" x="841.8" y="196.7" width="12.2" height="24.65" shape-rendering="crispEdges"/><rect fill="#121212" x="854" y="196.7" width="12.2" height="24.65" shape-rendering="crispEdges"/><rect fill="#262626" x="0" y="221.1" width="841.8" height="24.65" shape-rendering="crispEdges"/><rect fill="#262626" x="841.8" y="221.1" width="12.2" height="24.65" shape-rendering="crispEdges"/><rect fill="#121212" x="854" y="221.1" width="12.2" height="24.65" shape-rendering="crispEdges"/><rect fill="#262626" x="0" y="245.5" width="841.8" height="24.65" shape-rendering="crispEdges"/><rect fill="#262626" x="841.8" y="245.5" width="12.2" height="24.65" shape-rendering="crispEdges"/><rect fill="#121212" x="854" y="245.5" width="12.2" height="24.65" shape-rendering="crispEdges"/><rect fill="#262626" x="0" y="269.9" width="841.8" height="24.65" shape-rendering="crispEdges"/><rect fill="#262626" x="841.8" y="269.9" width="12.2" height="24.65" shape-rendering="crispEdges"/><rect fill="#121212" x="854" y="269.9" width="12.2" height="24.65" shape-rendering="crispEdges"/><rect fill="#262626" x="0" y="294.3" width="841.8" height="24.65" shape-rendering="crispEdges"/><rect fill="#262626" x="841.8" y="294.3" width="12.2" height="24.65" shape-rendering="crispEdges"/><rect fill="#121212" x="854" y="294.3" width="12.2" height="24.65" shape-rendering="crispEdges"/><rect fill="#262626" x="0" y="318.7" width="841.8" height="24.65" shape-rendering="crispEdges"/><rect fill="#262626" x="841.8" y="318.7" width="12.2" height="24.65" shape-rendering="crispEdges"/><rect fill="#121212" x="854" y="318.7" width="12.2" height="24.65" shape-rendering="crispEdges"/><rect fill="#262626" x="0" y="343.1" width="841.8" height="24.65" shape-rendering="crispEdges"/><rect fill="#262626" x="841.8" y="343.1" width="12.2" height="24.65" shape-rendering="crispEdges"/><rect fill="#121212" x="854" y="343.1" width="12.2" height="24.65" shape-rendering="crispEdges"/><rect fill="#262626" x="0" y="367.5" width="841.8" height="24.65" shape-rendering="crispEdges"/><rect fill="#262626" x="841.8" y="367.5" width="12.2" height="24.65" shape-rendering="crispEdges"/><rect fill="#121212" x="854" y="367.5" width="12.2" height="24.65" shape-rendering="crispEdges"/><rect fill="#262626" x="0" y="391.9" width="841.8" height="24.65" shape-rendering="crispEdges"/><rect fill="#262626" x="841.8" y="391.9" width="12.2" height="24.65" shape-rendering="crispEdges"/><rect fill="#121212" x="854" y="391.9" width="12.2" height="24.65" shape-rendering="crispEdges"/><rect fill="#262626" x="0" y="416.3" width="841.8" height="24.65" shape-rendering="crispEdges"/><rect fill="#262626" x="841.8" y="416.3" width="12.2" height="24.65" shape-rendering="crispEdges"/><rect fill="#121212" x="854" y="416.3" width="12.2" height="24.65" shape-rendering="crispEdges"/><rect fill="#262626" x="0" y="440.7" width="841.8" height="24.65" shape-rendering="crispEdges"/><rect fill="#262626" x="841.8" y="440.7" width="12.2" height="24.65" shape-rendering="crispEdges"/><rect fill="#121212" x="854" y="440.7" width="12.2" height="24.65" shape-rendering="crispEdges"/><rect fill="#262626" x="0" y="465.1" width="841.8" height="24.65" shape-rendering="crispEdges"/><rect fill="#262626" x="841.8" y="465.1" width="12.2" height="24.65" shape-rendering="crispEdges"/><rect fill="#121212" x="854" y="465.1" width="12.2" height="24.65" shape-rendering="crispEdges"/><rect fill="#262626" x="0" y="489.5" width="841.8" height="24.65" shape-rendering="crispEdges"/><rect fill="#262626" x="841.8" y="489.5" width="12.2" height="24.65" shape-rendering="crispEdges"/><rect fill="#121212" x="854" y="489.5" width="12.2" height="24.65" shape-rendering="crispEdges"/><rect fill="#262626" x="0" y="513.9" width="841.8" height="24.65" shape-rendering="crispEdges"/><rect fill="#262626" x="841.8" y="513.9" width="12.2" height="24.65" shape-rendering="crispEdges"/><rect fill="#121212" x="854" y="513.9" width="12.2" height="24.65" shape-rendering="crispEdges"/><rect fill="#262626" x="0" y="538.3" width="841.8" height="24.65" shape-rendering="crispEdges"/><rect fill="#262626" x="841.8" y="538.3" width="12.2" height="24.65" shape-rendering="crispEdges"/><rect fill="#121212" x="854" y="538.3" width="12.2" height="24.65" shape-rendering="crispEdges"/><rect fill="#262626" x="0" y="562.7" width="841.8" height="24.65" shape-rendering="crispEdges"/><rect fill="#262626" x="841.8" y="562.7" width="12.2" height="24.65" shape-rendering="crispEdges"/><rect fill="#121212" x="854" y="562.7" width="12.2" height="24.65" shape-rendering="crispEdges"/><rect fill="#262626" x="0" y="587.1" width="841.8" height="24.65" shape-rendering="crispEdges"/><rect fill="#262626" x="841.8" y="587.1" width="12.2" height="24.65" shape-rendering="crispEdges"/><rect fill="#121212" x="854" y="587.1" width="12.2" height="24.65" shape-rendering="crispEdges"/><rect fill="#262626" x="0" y="611.5" width="841.8" height="24.65" shape-rendering="crispEdges"/><rect fill="#262626" x="841.8" y="611.5" width="12.2" height="24.65" shape-rendering="crispEdges"/><rect fill="#121212" x="854" y="611.5" width="12.2" height="24.65" shape-rendering="crispEdges"/><rect fill="#262626" x="0" y="635.9" width="841.8" height="24.65" shape-rendering="crispEdges"/><rect fill="#262626" x="841.8" y="635.9" width="12.2" height="24.65" shape-rendering="crispEdges"/><rect fill="#121212" x="854" y="635.9" width="12.2" height="24.65" shape-rendering="crispEdges"/><rect fill="#262626" x="0" y="660.3" width="841.8" height="24.65" shape-rendering="crispEdges"/><rect fill="#262626" x="841.8" y="660.3" width="12.2" height="24.65" shape-rendering="crispEdges"/><rect fill="#121212" x="854" y="660.3" width="12.2" height="24.65" shape-rendering="crispEdges"/><rect fill="#262626" x="0" y="684.7" width="841.8" height="24.65" shape-rendering="crispEdges"/><rect fill="#262626" x="841.8" y="684.7" width="12.2" height="24.65" shape-rendering="crispEdges"/><rect fill="#121212" x="854" y="684.7" width="12.2" height="24.65" shape-rendering="crispEdges"/><rect fill="#262626" x="0" y="709.1" width="841.8" height="24.65" shape-rendering="crispEdges"/><rect fill="#262626" x="841.8" y="709.1" width="12.2" height="24.65" shape-rendering="crispEdges"/><rect fill="#121212" x="854" y="709.1" width="12.2" height="24.65" shape-rendering="crispEdges"/><rect fill="#262626" x="0" y="733.5" width="841.8" height="24.65" shape-rendering="crispEdges"/><rect fill="#262626" x="841.8" y="733.5" width="12.2" height="24.65" shape-rendering="crispEdges"/><rect fill="#121212" x="854" y="733.5" width="12.2" height="24.65" shape-rendering="crispEdges"/><rect fill="#262626" x="0" y="757.9" width="841.8" height="24.65" shape-rendering="crispEdges"/><rect fill="#262626" x="841.8" y="757.9" width="12.2" height="24.65" shape-rendering="crispEdges"/><rect fill="#121212" x="854" y="757.9" width="12.2" height="24.65" shape-rendering="crispEdges"/><rect fill="#262626" x="0" y="782.3" width="841.8" height="24.65" shape-rendering="crispEdges"/><rect fill="#262626" x="841.8" y="782.3" width="12.2" height="24.65" shape-rendering="crispEdges"/><rect fill="#121212" x="854" y="782.3" width="12.2" height="24.65" shape-rendering="crispEdges"/><rect fill="#262626" x="0" y="806.7" width="841.8" height="24.65" shape-rendering="crispEdges"/><rect fill="#262626" x="841.8" y="806.7" width="12.2" height="24.65" shape-rendering="crispEdges"/><rect fill="#121212" x="854" y="806.7" width="12.2" height="24.65" shape-rendering="crispEdges"/><rect fill="#1c1c1c" x="0" y="831.1" width="12.2" height="24.65" shape-rendering="crispEdges"/><rect fill="#1c1c1c" x="12.2" y="831.1" width="207.4" height="24.65" shape-rendering="crispEdges"/><rect fill="#1c1c1c" x="219.6" y="831.1" width="36.6" height="24.65" shape-rendering="crispEdges"/><rect fill="#1c1c1c" x="256.2" y="831.1" width="183" height="24.65" shape-rendering="crispEdges"/><rect fill="#1c1c1c" x="439.2" y="831.1" width="36.6" height="24.65" shape-rendering="crispEdges"/><rect fill="#1c1c1c" x="475.8" y="831.1" width="170.8" height="24.65" shape-rendering="crispEdges"/><rect fill="#1c1c1c" x="646.6" y="831.1" width="36.6" height="24.65" shape-rendering="crispEdges"/><rect fill="#1c1c1c" x="683.2" y="831.1" width="97.6" height="24.65" shape-rendering="crispEdges"/><rect fill="#1c1c1c" x="780.8" y="831.1" width="36.6" height="24.65" shape-rendering="crispEdges"/><rect fill="#1c1c1c" x="817.4" y="831.1" width="219.6" height="24.65" shape-rendering="crispEdges"/>
    <g class="terminal-2361398507-matrix">
    <text class="terminal-2361398507-r2" x="12.2" y="20" textLength="353.8" clip-path="url(#terminal-2361398507-line-0)">the&#160;plan&#160;of&#160;~/graphene-polish</text><text class="terminal-2361398507-r1" x="1464" y="20" textLength="12.2" clip-path="url(#terminal-2361398507-line-0)">
</text><text class="terminal-2361398507-r3" x="0" y="44.4" textLength="48.8" clip-path="url(#terminal-2361398507-line-1)">▼&#160;○&#160;</text><text class="terminal-2361398507-r2" x="48.8" y="44.4" textLength="671" clip-path="url(#terminal-2361398507-line-1)">Load&#160;the&#160;Northwind&#160;XML&#160;feed&#160;through&#160;the&#160;same&#160;`load`…&#160;&#160;&#160;</text><text class="terminal-2361398507-r3" x="719.8" y="44.4" textLength="122" clip-path="url(#terminal-2361398507-line-1)">&#160;&#160;2/4&#160;done</text><text class="terminal-2361398507-r4" x="854" y="44.4" textLength="12.2" clip-path="url(#terminal-2361398507-line-1)">│</text><text class="terminal-2361398507-r2" x="878.4" y="44.4" textLength="427" clip-path="url(#terminal-2361398507-line-1)">read&#160;the&#160;new&#160;README&#160;section&#160;for&#160;xml</text><text class="terminal-2361398507-r1" x="1464" y="44.4" textLength="12.2" clip-path="url(#terminal-2361398507-line-1)">
</text><text class="terminal-2361398507-r5" x="0" y="68.8" textLength="24.4" clip-path="url(#terminal-2361398507-line-2)">├&#160;</text><text class="terminal-2361398507-r3" x="24.4" y="68.8" textLength="24.4" clip-path="url(#terminal-2361398507-line-2)">▶&#160;</text><text class="terminal-2361398507-r6" x="48.8" y="68.8" textLength="24.4" clip-path="url(#terminal-2361398507-line-2)">✓&#160;</text><text class="terminal-2361398507-r2" x="73.2" y="68.8" textLength="500.2" clip-path="url(#terminal-2361398507-line-2)">zero&#160;price&#160;is&#160;skipped&#160;for&#160;every&#160;supplier&#160;</text><text class="terminal-2361398507-r7" x="573.4" y="68.8" textLength="146.4" clip-path="url(#terminal-2361398507-line-2)">&#160;&#160;zero-price</text><text class="terminal-2361398507-r6" x="719.8" y="68.8" textLength="122" clip-path="url(#terminal-2361398507-line-2)">&#160;&#160;done&#160;&#160;&#160;&#160;</text><text class="terminal-2361398507-r4" x="854" y="68.8" textLength="12.2" clip-path="url(#terminal-2361398507-line-2)">│</text><text class="terminal-2361398507-r8" x="878.4" y="68.8" textLength="24.4" clip-path="url(#terminal-2361398507-line-2)">n6</text><text class="terminal-2361398507-r3" x="902.8" y="68.8" textLength="36.6" clip-path="url(#terminal-2361398507-line-2)">&#160;·&#160;</text><text class="terminal-2361398507-r9" x="939.4" y="68.8" textLength="61" clip-path="url(#terminal-2361398507-line-2)">yours</text><text class="terminal-2361398507-r1" x="1464" y="68.8" textLength="12.2" clip-path="url(#terminal-2361398507-line-2)">
</text><text class="terminal-2361398507-r5" x="0" y="93.2" textLength="24.4" clip-path="url(#terminal-2361398507-line-3)">└&#160;</text><text class="terminal-2361398507-r3" x="24.4" y="93.2" textLength="48.8" clip-path="url(#terminal-2361398507-line-3)">▼&#160;○&#160;</text><text class="terminal-2361398507-r2" x="73.2" y="93.2" textLength="500.2" clip-path="url(#terminal-2361398507-line-3)">the&#160;xml&#160;source&#160;is&#160;wired&#160;in&#160;&#160;&#160;&#160;&#160;&#160;&#160;&#160;&#160;&#160;&#160;&#160;&#160;&#160;&#160;</text><text class="terminal-2361398507-r7" x="573.4" y="93.2" textLength="146.4" clip-path="url(#terminal-2361398507-line-3)">&#160;&#160;xml-source</text><text class="terminal-2361398507-r3" x="719.8" y="93.2" textLength="122" clip-path="url(#terminal-2361398507-line-3)">&#160;&#160;1/3&#160;done</text><text class="terminal-2361398507-r4" x="854" y="93.2" textLength="12.2" clip-path="url(#terminal-2361398507-line-3)">│</text><text class="terminal-2361398507-r9" x="878.4" y="93.2" textLength="402.6" clip-path="url(#terminal-2361398507-line-3)">yours&#160;to&#160;do:&#160;no&#160;executor&#160;takes&#160;it</text><text class="terminal-2361398507-r1" x="1464" y="93.2" textLength="12.2" clip-path="url(#terminal-2361398507-line-3)">
</text><text class="terminal-2361398507-r5" x="0" y="117.6" textLength="48.8" clip-path="url(#terminal-2361398507-line-4)">&#160;&#160;├&#160;</text><text class="terminal-2361398507-r6" x="73.2" y="117.6" textLength="24.4" clip-path="url(#terminal-2361398507-line-4)">✓&#160;</text><text class="terminal-2361398507-r3" x="97.6" y="117.6" textLength="475.8" clip-path="url(#terminal-2361398507-line-4)">an&#160;xml&#160;reader&#160;&#160;&#160;&#160;&#160;&#160;&#160;&#160;&#160;&#160;&#160;&#160;&#160;&#160;&#160;&#160;&#160;&#160;&#160;&#160;&#160;&#160;&#160;&#160;&#160;&#160;</text><text class="terminal-2361398507-r7" x="573.4" y="117.6" textLength="146.4" clip-path="url(#terminal-2361398507-line-4)">&#160;&#160;xml-reader</text><text class="terminal-2361398507-r6" x="719.8" y="117.6" textLength="122" clip-path="url(#terminal-2361398507-line-4)">&#160;&#160;done&#160;&#160;&#160;&#160;</text><text class="terminal-2361398507-r4" x="854" y="117.6" textLength="12.2" clip-path="url(#terminal-2361398507-line-4)">│</text><text class="terminal-2361398507-r1" x="1464" y="117.6" textLength="12.2" clip-path="url(#terminal-2361398507-line-4)">
</text><text class="terminal-2361398507-r5" x="0" y="142" textLength="48.8" clip-path="url(#terminal-2361398507-line-5)">&#160;&#160;├&#160;</text><text class="terminal-2361398507-r3" x="48.8" y="142" textLength="524.6" clip-path="url(#terminal-2361398507-line-5)">&#160;&#160;○&#160;xml&#160;enabled&#160;end&#160;to&#160;end&#160;&#160;&#160;&#160;&#160;&#160;&#160;&#160;&#160;&#160;&#160;&#160;&#160;&#160;&#160;&#160;&#160;</text><text class="terminal-2361398507-r7" x="573.4" y="142" textLength="146.4" clip-path="url(#terminal-2361398507-line-5)">&#160;&#160;xml-wiring</text><text class="terminal-2361398507-r3" x="719.8" y="142" textLength="122" clip-path="url(#terminal-2361398507-line-5)">&#160;&#160;ready&#160;&#160;&#160;</text><text class="terminal-2361398507-r4" x="854" y="142" textLength="12.2" clip-path="url(#terminal-2361398507-line-5)">│</text><text class="terminal-2361398507-r2" x="878.4" y="142" textLength="85.4" clip-path="url(#terminal-2361398507-line-5)">why&#160;&#160;&#160;&#160;</text><text class="terminal-2361398507-r3" x="963.8" y="142" textLength="439.2" clip-path="url(#terminal-2361398507-line-5)">Load&#160;the&#160;Northwind&#160;XML&#160;feed&#160;through…</text><text class="terminal-2361398507-r1" x="1464" y="142" textLength="12.2" clip-path="url(#terminal-2361398507-line-5)">
</text><text class="terminal-2361398507-r5" x="0" y="166.4" textLength="48.8" clip-path="url(#terminal-2361398507-line-6)">&#160;&#160;└&#160;</text><text class="terminal-2361398507-r10" x="73.2" y="166.4" textLength="500.2" clip-path="url(#terminal-2361398507-line-6)">◇&#160;read&#160;the&#160;new&#160;README&#160;section&#160;for&#160;xml&#160;&#160;&#160;&#160;</text><text class="terminal-2361398507-r11" x="573.4" y="166.4" textLength="146.4" clip-path="url(#terminal-2361398507-line-6)">&#160;&#160;n6&#160;&#160;&#160;&#160;&#160;&#160;&#160;&#160;</text><text class="terminal-2361398507-r10" x="719.8" y="166.4" textLength="122" clip-path="url(#terminal-2361398507-line-6)">&#160;&#160;yours&#160;&#160;&#160;</text><text class="terminal-2361398507-r4" x="854" y="166.4" textLength="12.2" clip-path="url(#terminal-2361398507-line-6)">│</text><text class="terminal-2361398507-r3" x="878.4" y="166.4" textLength="427" clip-path="url(#terminal-2361398507-line-6)">&#160;&#160;&#160;&#160;&#160;&#160;&#160;&#160;&#160;the&#160;xml&#160;source&#160;is&#160;wired…&#160;&#160;</text><text class="terminal-2361398507-r8" x="1305.4" y="166.4" textLength="122" clip-path="url(#terminal-2361398507-line-6)">xml-source</text><text class="terminal-2361398507-r1" x="1464" y="166.4" textLength="12.2" clip-path="url(#terminal-2361398507-line-6)">
</text><text class="terminal-2361398507-r4" x="854" y="190.8" textLength="12.2" clip-path="url(#terminal-2361398507-line-7)">│</text><text class="terminal-2361398507-r2" x="878.4" y="190.8" textLength="85.4" clip-path="url(#terminal-2361398507-line-7)">owner&#160;&#160;</text><text class="terminal-2361398507-r3" x="963.8" y="190.8" textLength="109.8" clip-path="url(#terminal-2361398507-line-7)">alexlopez</text><text class="terminal-2361398507-r1" x="1464" y="190.8" textLength="12.2" clip-path="url(#terminal-2361398507-line-7)">
</text><text class="terminal-2361398507-r4" x="854" y="215.2" textLength="12.2" clip-path="url(#terminal-2361398507-line-8)">│</text><text class="terminal-2361398507-r1" x="1464" y="215.2" textLength="12.2" clip-path="url(#terminal-2361398507-line-8)">
</text><text class="terminal-2361398507-r4" x="854" y="239.6" textLength="12.2" clip-path="url(#terminal-2361398507-line-9)">│</text><text class="terminal-2361398507-r1" x="1464" y="239.6" textLength="12.2" clip-path="url(#terminal-2361398507-line-9)">
</text><text class="terminal-2361398507-r4" x="854" y="264" textLength="12.2" clip-path="url(#terminal-2361398507-line-10)">│</text><text class="terminal-2361398507-r1" x="1464" y="264" textLength="12.2" clip-path="url(#terminal-2361398507-line-10)">
</text><text class="terminal-2361398507-r4" x="854" y="288.4" textLength="12.2" clip-path="url(#terminal-2361398507-line-11)">│</text><text class="terminal-2361398507-r1" x="1464" y="288.4" textLength="12.2" clip-path="url(#terminal-2361398507-line-11)">
</text><text class="terminal-2361398507-r4" x="854" y="312.8" textLength="12.2" clip-path="url(#terminal-2361398507-line-12)">│</text><text class="terminal-2361398507-r1" x="1464" y="312.8" textLength="12.2" clip-path="url(#terminal-2361398507-line-12)">
</text><text class="terminal-2361398507-r4" x="854" y="337.2" textLength="12.2" clip-path="url(#terminal-2361398507-line-13)">│</text><text class="terminal-2361398507-r1" x="1464" y="337.2" textLength="12.2" clip-path="url(#terminal-2361398507-line-13)">
</text><text class="terminal-2361398507-r4" x="854" y="361.6" textLength="12.2" clip-path="url(#terminal-2361398507-line-14)">│</text><text class="terminal-2361398507-r1" x="1464" y="361.6" textLength="12.2" clip-path="url(#terminal-2361398507-line-14)">
</text><text class="terminal-2361398507-r4" x="854" y="386" textLength="12.2" clip-path="url(#terminal-2361398507-line-15)">│</text><text class="terminal-2361398507-r1" x="1464" y="386" textLength="12.2" clip-path="url(#terminal-2361398507-line-15)">
</text><text class="terminal-2361398507-r4" x="854" y="410.4" textLength="12.2" clip-path="url(#terminal-2361398507-line-16)">│</text><text class="terminal-2361398507-r1" x="1464" y="410.4" textLength="12.2" clip-path="url(#terminal-2361398507-line-16)">
</text><text class="terminal-2361398507-r4" x="854" y="434.8" textLength="12.2" clip-path="url(#terminal-2361398507-line-17)">│</text><text class="terminal-2361398507-r1" x="1464" y="434.8" textLength="12.2" clip-path="url(#terminal-2361398507-line-17)">
</text><text class="terminal-2361398507-r4" x="854" y="459.2" textLength="12.2" clip-path="url(#terminal-2361398507-line-18)">│</text><text class="terminal-2361398507-r1" x="1464" y="459.2" textLength="12.2" clip-path="url(#terminal-2361398507-line-18)">
</text><text class="terminal-2361398507-r4" x="854" y="483.6" textLength="12.2" clip-path="url(#terminal-2361398507-line-19)">│</text><text class="terminal-2361398507-r1" x="1464" y="483.6" textLength="12.2" clip-path="url(#terminal-2361398507-line-19)">
</text><text class="terminal-2361398507-r4" x="854" y="508" textLength="12.2" clip-path="url(#terminal-2361398507-line-20)">│</text><text class="terminal-2361398507-r1" x="1464" y="508" textLength="12.2" clip-path="url(#terminal-2361398507-line-20)">
</text><text class="terminal-2361398507-r4" x="854" y="532.4" textLength="12.2" clip-path="url(#terminal-2361398507-line-21)">│</text><text class="terminal-2361398507-r1" x="1464" y="532.4" textLength="12.2" clip-path="url(#terminal-2361398507-line-21)">
</text><text class="terminal-2361398507-r4" x="854" y="556.8" textLength="12.2" clip-path="url(#terminal-2361398507-line-22)">│</text><text class="terminal-2361398507-r1" x="1464" y="556.8" textLength="12.2" clip-path="url(#terminal-2361398507-line-22)">
</text><text class="terminal-2361398507-r4" x="854" y="581.2" textLength="12.2" clip-path="url(#terminal-2361398507-line-23)">│</text><text class="terminal-2361398507-r1" x="1464" y="581.2" textLength="12.2" clip-path="url(#terminal-2361398507-line-23)">
</text><text class="terminal-2361398507-r4" x="854" y="605.6" textLength="12.2" clip-path="url(#terminal-2361398507-line-24)">│</text><text class="terminal-2361398507-r1" x="1464" y="605.6" textLength="12.2" clip-path="url(#terminal-2361398507-line-24)">
</text><text class="terminal-2361398507-r4" x="854" y="630" textLength="12.2" clip-path="url(#terminal-2361398507-line-25)">│</text><text class="terminal-2361398507-r1" x="1464" y="630" textLength="12.2" clip-path="url(#terminal-2361398507-line-25)">
</text><text class="terminal-2361398507-r4" x="854" y="654.4" textLength="12.2" clip-path="url(#terminal-2361398507-line-26)">│</text><text class="terminal-2361398507-r1" x="1464" y="654.4" textLength="12.2" clip-path="url(#terminal-2361398507-line-26)">
</text><text class="terminal-2361398507-r4" x="854" y="678.8" textLength="12.2" clip-path="url(#terminal-2361398507-line-27)">│</text><text class="terminal-2361398507-r1" x="1464" y="678.8" textLength="12.2" clip-path="url(#terminal-2361398507-line-27)">
</text><text class="terminal-2361398507-r4" x="854" y="703.2" textLength="12.2" clip-path="url(#terminal-2361398507-line-28)">│</text><text class="terminal-2361398507-r1" x="1464" y="703.2" textLength="12.2" clip-path="url(#terminal-2361398507-line-28)">
</text><text class="terminal-2361398507-r4" x="854" y="727.6" textLength="12.2" clip-path="url(#terminal-2361398507-line-29)">│</text><text class="terminal-2361398507-r1" x="1464" y="727.6" textLength="12.2" clip-path="url(#terminal-2361398507-line-29)">
</text><text class="terminal-2361398507-r4" x="854" y="752" textLength="12.2" clip-path="url(#terminal-2361398507-line-30)">│</text><text class="terminal-2361398507-r1" x="1464" y="752" textLength="12.2" clip-path="url(#terminal-2361398507-line-30)">
</text><text class="terminal-2361398507-r4" x="854" y="776.4" textLength="12.2" clip-path="url(#terminal-2361398507-line-31)">│</text><text class="terminal-2361398507-r1" x="1464" y="776.4" textLength="12.2" clip-path="url(#terminal-2361398507-line-31)">
</text><text class="terminal-2361398507-r4" x="854" y="800.8" textLength="12.2" clip-path="url(#terminal-2361398507-line-32)">│</text><text class="terminal-2361398507-r1" x="1464" y="800.8" textLength="12.2" clip-path="url(#terminal-2361398507-line-32)">
</text><text class="terminal-2361398507-r4" x="854" y="825.2" textLength="12.2" clip-path="url(#terminal-2361398507-line-33)">│</text><text class="terminal-2361398507-r1" x="1464" y="825.2" textLength="12.2" clip-path="url(#terminal-2361398507-line-33)">
</text><text class="terminal-2361398507-r9" x="12.2" y="849.6" textLength="207.4" clip-path="url(#terminal-2361398507-line-34)">waiting&#160;on&#160;you:&#160;1</text><text class="terminal-2361398507-r8" x="219.6" y="849.6" textLength="36.6" clip-path="url(#terminal-2361398507-line-34)">&#160;·&#160;</text><text class="terminal-2361398507-r3" x="256.2" y="849.6" textLength="183" clip-path="url(#terminal-2361398507-line-34)">executors:&#160;none</text><text class="terminal-2361398507-r8" x="439.2" y="849.6" textLength="36.6" clip-path="url(#terminal-2361398507-line-34)">&#160;·&#160;</text><text class="terminal-2361398507-r3" x="475.8" y="849.6" textLength="170.8" clip-path="url(#terminal-2361398507-line-34)">R&#160;runs&#160;1&#160;ready</text><text class="terminal-2361398507-r8" x="646.6" y="849.6" textLength="36.6" clip-path="url(#terminal-2361398507-line-34)">&#160;·&#160;</text><text class="terminal-2361398507-r3" x="683.2" y="849.6" textLength="97.6" clip-path="url(#terminal-2361398507-line-34)">2/4&#160;done</text><text class="terminal-2361398507-r8" x="780.8" y="849.6" textLength="36.6" clip-path="url(#terminal-2361398507-line-34)">&#160;·&#160;</text><text class="terminal-2361398507-r3" x="817.4" y="849.6" textLength="219.6" clip-path="url(#terminal-2361398507-line-34)">plan&#160;first:&#160;on&#160;(P)</text><text class="terminal-2361398507-r1" x="1464" y="849.6" textLength="12.2" clip-path="url(#terminal-2361398507-line-34)">
</text><text class="terminal-2361398507-r3" x="12.2" y="874" textLength="73.2" clip-path="url(#terminal-2361398507-line-35)">y&#160;done</text><text class="terminal-2361398507-r8" x="85.4" y="874" textLength="36.6" clip-path="url(#terminal-2361398507-line-35)">&#160;·&#160;</text><text class="terminal-2361398507-r3" x="122" y="874" textLength="73.2" clip-path="url(#terminal-2361398507-line-35)">e&#160;edit</text><text class="terminal-2361398507-r8" x="195.2" y="874" textLength="36.6" clip-path="url(#terminal-2361398507-line-35)">&#160;·&#160;</text><text class="terminal-2361398507-r3" x="231.8" y="874" textLength="146.4" clip-path="url(#terminal-2361398507-line-35)">Enter&#160;record</text><text class="terminal-2361398507-r8" x="378.2" y="874" textLength="36.6" clip-path="url(#terminal-2361398507-line-35)">&#160;·&#160;</text><text class="terminal-2361398507-r3" x="414.8" y="874" textLength="73.2" clip-path="url(#terminal-2361398507-line-35)">?&#160;help</text><text class="terminal-2361398507-r8" x="488" y="874" textLength="36.6" clip-path="url(#terminal-2361398507-line-35)">&#160;·&#160;</text><text class="terminal-2361398507-r3" x="524.6" y="874" textLength="73.2" clip-path="url(#terminal-2361398507-line-35)">q&#160;quit</text><text class="terminal-2361398507-r1" x="1464" y="874" textLength="12.2" clip-path="url(#terminal-2361398507-line-35)">
</text><text class="terminal-2361398507-r1" x="1464" y="898.4" textLength="12.2" clip-path="url(#terminal-2361398507-line-36)">
</text>
    </g>
    </g>
</svg>
