<svg xmlns="http://www.w3.org/2000/svg" class="rich-terminal" viewBox="0 0 1482 952.8"><style>@font-face{font-family:&quot;Fira Code&quot;;src:local(&quot;FiraCode-Regular&quot;),url(https://cdnjs.cloudflare.com/ajax/libs/firacode/6.2.0/woff2/FiraCode-Regular.woff2) format(&quot;woff2&quot;),url(https://cdnjs.cloudflare.com/ajax/libs/firacode/6.2.0/woff/FiraCode-Regular.woff) format(&quot;woff&quot;);font-style:normal;font-weight:400}@font-face{font-family:&quot;Fira Code&quot;;src:local(&quot;FiraCode-Bold&quot;),url(https://cdnjs.cloudflare.com/ajax/libs/firacode/6.2.0/woff2/FiraCode-Bold.woff2) format(&quot;woff2&quot;),url(https://cdnjs.cloudflare.com/ajax/libs/firacode/6.2.0/woff/FiraCode-Bold.woff) format(&quot;woff&quot;);font-style:bold;font-weight:700}.terminal-2688778591-matrix{font-family:Fira Code,monospace;font-size:20px;line-height:24.4px;font-variant-east-asian:full-width}.terminal-2688778591-title{font-size:18px;font-weight:700;font-family:arial}.terminal-2688778591-r2{fill:#dadada;font-weight:700}.terminal-2688778591-r3{fill:#dadada}.terminal-2688778591-r4{fill:#d7ffff;font-weight:700}.terminal-2688778591-r5{fill:#0087d7}.terminal-2688778591-r7{fill:#87d700}.terminal-2688778591-r8{fill:#9e9e9e}.terminal-2688778591-r9{fill:#ff005f}.terminal-2688778591-r10{fill:#000}.terminal-2688778591-r11{fill:#949494}</style><defs><clipPath id="terminal-2688778591-clip-terminal"><rect width="1463" height="901.8" x="0" y="0"/></clipPath><clipPath id="terminal-2688778591-line-0"><rect width="1464" height="24.65" x="0" y="1.5"/></clipPath><clipPath id="terminal-2688778591-line-1"><rect width="1464" height="24.65" x="0" y="25.9"/></clipPath><clipPath id="terminal-2688778591-line-2"><rect width="1464" height="24.65" x="0" y="50.3"/></clipPath><clipPath id="terminal-2688778591-line-3"><rect width="1464" height="24.65" x="0" y="74.7"/></clipPath><clipPath id="terminal-2688778591-line-4"><rect width="1464" height="24.65" x="0" y="99.1"/></clipPath><clipPath id="terminal-2688778591-line-5"><rect width="1464" height="24.65" x="0" y="123.5"/></clipPath><clipPath id="terminal-2688778591-line-6"><rect width="1464" height="24.65" x="0" y="147.9"/></clipPath><clipPath id="terminal-2688778591-line-7"><rect width="1464" height="24.65" x="0" y="172.3"/></clipPath><clipPath id="terminal-2688778591-line-8"><rect width="1464" height="24.65" x="0" y="196.7"/></clipPath><clipPath id="terminal-2688778591-line-9"><rect width="1464" height="24.65" x="0" y="221.1"/></clipPath><clipPath id="terminal-2688778591-line-10"><rect width="1464" height="24.65" x="0" y="245.5"/></clipPath><clipPath id="terminal-2688778591-line-11"><rect width="1464" height="24.65" x="0" y="269.9"/></clipPath><clipPath id="terminal-2688778591-line-12"><rect width="1464" height="24.65" x="0" y="294.3"/></clipPath><clipPath id="terminal-2688778591-line-13"><rect width="1464" height="24.65" x="0" y="318.7"/></clipPath><clipPath id="terminal-2688778591-line-14"><rect width="1464" height="24.65" x="0" y="343.1"/></clipPath><clipPath id="terminal-2688778591-line-15"><rect width="1464" height="24.65" x="0" y="367.5"/></clipPath><clipPath id="terminal-2688778591-line-16"><rect width="1464" height="24.65" x="0" y="391.9"/></clipPath><clipPath id="terminal-2688778591-line-17"><rect width="1464" height="24.65" x="0" y="416.3"/></clipPath><clipPath id="terminal-2688778591-line-18"><rect width="1464" height="24.65" x="0" y="440.7"/></clipPath><clipPath id="terminal-2688778591-line-19"><rect width="1464" height="24.65" x="0" y="465.1"/></clipPath><clipPath id="terminal-2688778591-line-20"><rect width="1464" height="24.65" x="0" y="489.5"/></clipPath><clipPath id="terminal-2688778591-line-21"><rect width="1464" height="24.65" x="0" y="513.9"/></clipPath><clipPath id="terminal-2688778591-line-22"><rect width="1464" height="24.65" x="0" y="538.3"/></clipPath><clipPath id="terminal-2688778591-line-23"><rect width="1464" height="24.65" x="0" y="562.7"/></clipPath><clipPath id="terminal-2688778591-line-24"><rect width="1464" height="24.65" x="0" y="587.1"/></clipPath><clipPath id="terminal-2688778591-line-25"><rect width="1464" height="24.65" x="0" y="611.5"/></clipPath><clipPath id="terminal-2688778591-line-26"><rect width="1464" height="24.65" x="0" y="635.9"/></clipPath><clipPath id="terminal-2688778591-line-27"><rect width="1464" height="24.65" x="0" y="660.3"/></clipPath><clipPath id="terminal-2688778591-line-28"><rect width="1464" height="24.65" x="0" y="684.7"/></clipPath><clipPath id="terminal-2688778591-line-29"><rect width="1464" height="24.65" x="0" y="709.1"/></clipPath><clipPath id="terminal-2688778591-line-30"><rect width="1464" height="24.65" x="0" y="733.5"/></clipPath><clipPath id="terminal-2688778591-line-31"><rect width="1464" height="24.65" x="0" y="757.9"/></clipPath><clipPath id="terminal-2688778591-line-32"><rect width="1464" height="24.65" x="0" y="782.3"/></clipPath><clipPath id="terminal-2688778591-line-33"><rect width="1464" height="24.65" x="0" y="806.7"/></clipPath><clipPath id="terminal-2688778591-line-34"><rect width="1464" height="24.65" x="0" y="831.1"/></clipPath><clipPath id="terminal-2688778591-line-35"><rect width="1464" height="24.65" x="0" y="855.5"/></clipPath></defs><rect width="1480" height="950.8" x="1" y="1" fill="#292929" stroke="rgba(255,255,255,0.35)" stroke-width="1" rx="8"/><text x="740" y="27" fill="#c5c8c6" class="terminal-2688778591-title" text-anchor="middle">graphene watch · 120x36 · after</text><g transform="translate(26,22)"><circle cx="0" cy="0" r="7" fill="#ff5f57"/><circle cx="22" cy="0" r="7" fill="#febc2e"/><circle cx="44" cy="0" r="7" fill="#28c840"/></g><g clip-path="url(#terminal-2688778591-clip-terminal)" transform="translate(9, 41)"><rect width="12.2" height="24.65" x="0" y="1.5" fill="#1c1c1c" shape-rendering="crispEdges"/><rect width="353.8" height="24.65" x="12.2" y="1.5" fill="#1c1c1c" shape-rendering="crispEdges"/><rect width="24.4" height="24.65" x="0" y="25.9" fill="#262626" shape-rendering="crispEdges"/><rect width="817.4" height="24.65" x="24.4" y="25.9" fill="#0087d7" shape-rendering="crispEdges"/><rect width="12.2" height="24.65" x="841.8" y="25.9" fill="#262626" shape-rendering="crispEdges"/><rect width="12.2" height="24.65" x="854" y="25.9" fill="#121212" shape-rendering="crispEdges"/><rect width="12.2" height="24.65" x="866.2" y="25.9" fill="#121212" shape-rendering="crispEdges"/><rect width="280.6" height="24.65" x="878.4" y="25.9" fill="#121212" shape-rendering="crispEdges"/><rect width="280.6" height="24.65" x="1159" y="25.9" fill="#121212" shape-rendering="crispEdges"/><rect width="12.2" height="24.65" x="1439.6" y="25.9" fill="#005f5f" shape-rendering="crispEdges"/><rect width="24.4" height="24.65" x="0" y="50.3" fill="#262626" shape-rendering="crispEdges"/><rect width="24.4" height="24.65" x="24.4" y="50.3" fill="#262626" shape-rendering="crispEdges"/><rect width="24.4" height="24.65" x="48.8" y="50.3" fill="#262626" shape-rendering="crispEdges"/><rect width="500.2" height="24.65" x="73.2" y="50.3" fill="#262626" shape-rendering="crispEdges"/><rect width="146.4" height="24.65" x="573.4" y="50.3" fill="#262626" shape-rendering="crispEdges"/><rect width="122" height="24.65" x="719.8" y="50.3" fill="#262626" shape-rendering="crispEdges"/><rect width="12.2" height="24.65" x="841.8" y="50.3" fill="#262626" shape-rendering="crispEdges"/><rect width="12.2" height="24.65" x="854" y="50.3" fill="#121212" shape-rendering="crispEdges"/><rect width="12.2" height="24.65" x="866.2" y="50.3" fill="#121212" shape-rendering="crispEdges"/><rect width="549" height="24.65" x="878.4" y="50.3" fill="#121212" shape-rendering="crispEdges"/><rect width="12.2" height="24.65" x="1427.4" y="50.3" fill="#121212" shape-rendering="crispEdges"/><rect width="12.2" height="24.65" x="1439.6" y="50.3" fill="#005f5f" shape-rendering="crispEdges"/><rect width="24.4" height="24.65" x="0" y="74.7" fill="#262626" shape-rendering="crispEdges"/><rect width="48.8" height="24.65" x="24.4" y="74.7" fill="#262626" shape-rendering="crispEdges"/><rect width="500.2" height="24.65" x="73.2" y="74.7" fill="#262626" shape-rendering="crispEdges"/><rect width="146.4" height="24.65" x="573.4" y="74.7" fill="#262626" shape-rendering="crispEdges"/><rect width="122" height="24.65" x="719.8" y="74.7" fill="#262626" shape-rendering="crispEdges"/><rect width="12.2" height="24.65" x="841.8" y="74.7" fill="#262626" shape-rendering="crispEdges"/><rect width="12.2" height="24.65" x="854" y="74.7" fill="#121212" shape-rendering="crispEdges"/><rect width="12.2" height="24.65" x="866.2" y="74.7" fill="#121212" shape-rendering="crispEdges"/><rect width="561.2" height="24.65" x="878.4" y="74.7" fill="#121212" shape-rendering="crispEdges"/><rect width="12.2" height="24.65" x="1439.6" y="74.7" fill="#005f5f" shape-rendering="crispEdges"/><rect width="48.8" height="24.65" x="0" y="99.1" fill="#262626" shape-rendering="crispEdges"/><rect width="24.4" height="24.65" x="48.8" y="99.1" fill="#262626" shape-rendering="crispEdges"/><rect width="24.4" height="24.65" x="73.2" y="99.1" fill="#262626" shape-rendering="crispEdges"/><rect width="475.8" height="24.65" x="97.6" y="99.1" fill="#262626" shape-rendering="crispEdges"/><rect width="146.4" height="24.65" x="573.4" y="99.1" fill="#262626" shape-rendering="crispEdges"/><rect width="122" height="24.65" x="719.8" y="99.1" fill="#262626" shape-rendering="crispEdges"/><rect width="12.2" height="24.65" x="841.8" y="99.1" fill="#262626" shape-rendering="crispEdges"/><rect width="12.2" height="24.65" x="854" y="99.1" fill="#121212" shape-rendering="crispEdges"/><rect width="12.2" height="24.65" x="866.2" y="99.1" fill="#121212" shape-rendering="crispEdges"/><rect width="524.6" height="24.65" x="878.4" y="99.1" fill="#121212" shape-rendering="crispEdges"/><rect width="36.6" height="24.65" x="1403" y="99.1" fill="#121212" shape-rendering="crispEdges"/><rect width="12.2" height="24.65" x="1439.6" y="99.1" fill="#005f5f" shape-rendering="crispEdges"/><rect width="48.8" height="24.65" x="0" y="123.5" fill="#262626" shape-rendering="crispEdges"/><rect width="524.6" height="24.65" x="48.8" y="123.5" fill="#262626" shape-rendering="crispEdges"/><rect width="146.4" height="24.65" x="573.4" y="123.5" fill="#262626" shape-rendering="crispEdges"/><rect width="122" height="24.65" x="719.8" y="123.5" fill="#262626" shape-rendering="crispEdges"/><rect width="12.2" height="24.65" x="841.8" y="123.5" fill="#262626" shape-rendering="crispEdges"/><rect width="12.2" height="24.65" x="854" y="123.5" fill="#121212" shape-rendering="crispEdges"/><rect width="12.2" height="24.65" x="866.2" y="123.5" fill="#121212" shape-rendering="crispEdges"/><rect width="451.4" height="24.65" x="878.4" y="123.5" fill="#121212" shape-rendering="crispEdges"/><rect width="109.8" height="24.65" x="1329.8" y="123.5" fill="#121212" shape-rendering="crispEdges"/><rect width="12.2" height="24.65" x="1439.6" y="123.5" fill="#005f5f" shape-rendering="crispEdges"/><rect width="48.8" height="24.65" x="0" y="147.9" fill="#262626" shape-rendering="crispEdges"/><rect width="24.4" height="24.65" x="48.8" y="147.9" fill="#262626" shape-rendering="crispEdges"/><rect width="24.4" height="24.65" x="73.2" y="147.9" fill="#262626" shape-rendering="crispEdges"/><rect width="475.8" height="24.65" x="97.6" y="147.9" fill="#262626" shape-rendering="crispEdges"/><rect width="146.4" height="24.65" x="573.4" y="147.9" fill="#262626" shape-rendering="crispEdges"/><rect width="122" height="24.65" x="719.8" y="147.9" fill="#262626" shape-rendering="crispEdges"/><rect width="12.2" height="24.65" x="841.8" y="147.9" fill="#262626" shape-rendering="crispEdges"/><rect width="12.2" height="24.65" x="854" y="147.9" fill="#121212" shape-rendering="crispEdges"/><rect width="12.2" height="24.65" x="866.2" y="147.9" fill="#121212" shape-rendering="crispEdges"/><rect width="292.8" height="24.65" x="878.4" y="147.9" fill="#121212" shape-rendering="crispEdges"/><rect width="268.4" height="24.65" x="1171.2" y="147.9" fill="#121212" shape-rendering="crispEdges"/><rect width="12.2" height="24.65" x="1439.6" y="147.9" fill="#005f5f" shape-rendering="crispEdges"/><rect width="841.8" height="24.65" x="0" y="172.3" fill="#262626" shape-rendering="crispEdges"/><rect width="12.2" height="24.65" x="841.8" y="172.3" fill="#262626" shape-rendering="crispEdges"/><rect width="12.2" height="24.65" x="854" y="172.3" fill="#121212" shape-rendering="crispEdges"/><rect width="12.2" height="24.65" x="866.2" y="172.3" fill="#121212" shape-rendering="crispEdges"/><rect width="414.8" height="24.65" x="878.4" y="172.3" fill="#121212" shape-rendering="crispEdges"/><rect width="146.4" height="24.65" x="1293.2" y="172.3" fill="#121212" shape-rendering="crispEdges"/><rect width="12.2" height="24.65" x="1439.6" y="172.3" fill="#005f5f" shape-rendering="crispEdges"/><rect width="841.8" height="24.65" x="0" y="196.7" fill="#262626" shape-rendering="crispEdges"/><rect width="12.2" height="24.65" x="841.8" y="196.7" fill="#262626" shape-rendering="crispEdges"/><rect width="12.2" height="24.65" x="854" y="196.7" fill="#121212" shape-rendering="crispEdges"/><rect width="12.2" height="24.65" x="866.2" y="196.7" fill="#121212" shape-rendering="crispEdges"/><rect width="427" height="24.65" x="878.4" y="196.7" fill="#121212" shape-rendering="crispEdges"/><rect width="134.2" height="24.65" x="1305.4" y="196.7" fill="#121212" shape-rendering="crispEdges"/><rect width="12.2" height="24.65" x="1439.6" y="196.7" fill="#005f5f" shape-rendering="crispEdges"/><rect width="841.8" height="24.65" x="0" y="221.1" fill="#262626" shape-rendering="crispEdges"/><rect width="12.2" height="24.65" x="841.8" y="221.1" fill="#262626" shape-rendering="crispEdges"/><rect width="12.2" height="24.65" x="854" y="221.1" fill="#121212" shape-rendering="crispEdges"/><rect width="12.2" height="24.65" x="866.2" y="221.1" fill="#121212" shape-rendering="crispEdges"/><rect width="402.6" height="24.65" x="878.4" y="221.1" fill="#121212" shape-rendering="crispEdges"/><rect width="158.6" height="24.65" x="1281" y="221.1" fill="#121212" shape-rendering="crispEdges"/><rect width="12.2" height="24.65" x="1439.6" y="221.1" fill="#005f5f" shape-rendering="crispEdges"/><rect width="841.8" height="24.65" x="0" y="245.5" fill="#262626" shape-rendering="crispEdges"/><rect width="12.2" height="24.65" x="841.8" y="245.5" fill="#262626" shape-rendering="crispEdges"/><rect width="12.2" height="24.65" x="854" y="245.5" fill="#121212" shape-rendering="crispEdges"/><rect width="12.2" height="24.65" x="866.2" y="245.5" fill="#121212" shape-rendering="crispEdges"/><rect width="427" height="24.65" x="878.4" y="245.5" fill="#121212" shape-rendering="crispEdges"/><rect width="134.2" height="24.65" x="1305.4" y="245.5" fill="#121212" shape-rendering="crispEdges"/><rect width="12.2" height="24.65" x="1439.6" y="245.5" fill="#005f5f" shape-rendering="crispEdges"/><rect width="841.8" height="24.65" x="0" y="269.9" fill="#262626" shape-rendering="crispEdges"/><rect width="12.2" height="24.65" x="841.8" y="269.9" fill="#262626" shape-rendering="crispEdges"/><rect width="12.2" height="24.65" x="854" y="269.9" fill="#121212" shape-rendering="crispEdges"/><rect width="12.2" height="24.65" x="866.2" y="269.9" fill="#121212" shape-rendering="crispEdges"/><rect width="414.8" height="24.65" x="878.4" y="269.9" fill="#121212" shape-rendering="crispEdges"/><rect width="146.4" height="24.65" x="1293.2" y="269.9" fill="#121212" shape-rendering="crispEdges"/><rect width="12.2" height="24.65" x="1439.6" y="269.9" fill="#005f5f" shape-rendering="crispEdges"/><rect width="841.8" height="24.65" x="0" y="294.3" fill="#262626" shape-rendering="crispEdges"/><rect width="12.2" height="24.65" x="841.8" y="294.3" fill="#262626" shape-rendering="crispEdges"/><rect width="12.2" height="24.65" x="854" y="294.3" fill="#121212" shape-rendering="crispEdges"/><rect width="12.2" height="24.65" x="866.2" y="294.3" fill="#121212" shape-rendering="crispEdges"/><rect width="427" height="24.65" x="878.4" y="294.3" fill="#121212" shape-rendering="crispEdges"/><rect width="134.2" height="24.65" x="1305.4" y="294.3" fill="#121212" shape-rendering="crispEdges"/><rect width="12.2" height="24.65" x="1439.6" y="294.3" fill="#005f5f" shape-rendering="crispEdges"/><rect width="841.8" height="24.65" x="0" y="318.7" fill="#262626" shape-rendering="crispEdges"/><rect width="12.2" height="24.65" x="841.8" y="318.7" fill="#262626" shape-rendering="crispEdges"/><rect width="12.2" height="24.65" x="854" y="318.7" fill="#121212" shape-rendering="crispEdges"/><rect width="12.2" height="24.65" x="866.2" y="318.7" fill="#121212" shape-rendering="crispEdges"/><rect width="414.8" height="24.65" x="878.4" y="318.7" fill="#121212" shape-rendering="crispEdges"/><rect width="146.4" height="24.65" x="1293.2" y="318.7" fill="#121212" shape-rendering="crispEdges"/><rect width="12.2" height="24.65" x="1439.6" y="318.7" fill="#005f5f" shape-rendering="crispEdges"/><rect width="841.8" height="24.65" x="0" y="343.1" fill="#262626" shape-rendering="crispEdges"/><rect width="12.2" height="24.65" x="841.8" y="343.1" fill="#262626" shape-rendering="crispEdges"/><rect width="12.2" height="24.65" x="854" y="343.1" fill="#121212" shape-rendering="crispEdges"/><rect width="12.2" height="24.65" x="866.2" y="343.1" fill="#121212" shape-rendering="crispEdges"/><rect width="427" height="24.65" x="878.4" y="343.1" fill="#121212" shape-rendering="crispEdges"/><rect width="134.2" height="24.65" x="1305.4" y="343.1" fill="#121212" shape-rendering="crispEdges"/><rect width="12.2" height="24.65" x="1439.6" y="343.1" fill="#000" shape-rendering="crispEdges"/><rect width="841.8" height="24.65" x="0" y="367.5" fill="#262626" shape-rendering="crispEdges"/><rect width="12.2" height="24.65" x="841.8" y="367.5" fill="#262626" shape-rendering="crispEdges"/><rect width="12.2" height="24.65" x="854" y="367.5" fill="#121212" shape-rendering="crispEdges"/><rect width="12.2" height="24.65" x="866.2" y="367.5" fill="#121212" shape-rendering="crispEdges"/><rect width="414.8" height="24.65" x="878.4" y="367.5" fill="#121212" shape-rendering="crispEdges"/><rect width="146.4" height="24.65" x="1293.2" y="367.5" fill="#121212" shape-rendering="crispEdges"/><rect width="12.2" height="24.65" x="1439.6" y="367.5" fill="#000" shape-rendering="crispEdges"/><rect width="841.8" height="24.65" x="0" y="391.9" fill="#262626" shape-rendering="crispEdges"/><rect width="12.2" height="24.65" x="841.8" y="391.9" fill="#262626" shape-rendering="crispEdges"/><rect width="12.2" height="24.65" x="854" y="391.9" fill="#121212" shape-rendering="crispEdges"/><rect width="12.2" height="24.65" x="866.2" y="391.9" fill="#121212" shape-rendering="crispEdges"/><rect width="427" height="24.65" x="878.4" y="391.9" fill="#121212" shape-rendering="crispEdges"/><rect width="134.2" height="24.65" x="1305.4" y="391.9" fill="#121212" shape-rendering="crispEdges"/><rect width="12.2" height="24.65" x="1439.6" y="391.9" fill="#000" shape-rendering="crispEdges"/><rect width="841.8" height="24.65" x="0" y="416.3" fill="#262626" shape-rendering="crispEdges"/><rect width="12.2" height="24.65" x="841.8" y="416.3" fill="#262626" shape-rendering="crispEdges"/><rect width="12.2" height="24.65" x="854" y="416.3" fill="#121212" shape-rendering="crispEdges"/><rect width="12.2" height="24.65" x="866.2" y="416.3" fill="#121212" shape-rendering="crispEdges"/><rect width="561.2" height="24.65" x="878.4" y="416.3" fill="#121212" shape-rendering="crispEdges"/><rect width="12.2" height="24.65" x="1439.6" y="416.3" fill="#000" shape-rendering="crispEdges"/><rect width="841.8" height="24.65" x="0" y="440.7" fill="#262626" shape-rendering="crispEdges"/><rect width="12.2" height="24.65" x="841.8" y="440.7" fill="#262626" shape-rendering="crispEdges"/><rect width="12.2" height="24.65" x="854" y="440.7" fill="#121212" shape-rendering="crispEdges"/><rect width="12.2" height="24.65" x="866.2" y="440.7" fill="#121212" shape-rendering="crispEdges"/><rect width="366" height="24.65" x="878.4" y="440.7" fill="#121212" shape-rendering="crispEdges"/><rect width="195.2" height="24.65" x="1244.4" y="440.7" fill="#121212" shape-rendering="crispEdges"/><rect width="12.2" height="24.65" x="1439.6" y="440.7" fill="#000" shape-rendering="crispEdges"/><rect width="841.8" height="24.65" x="0" y="465.1" fill="#262626" shape-rendering="crispEdges"/><rect width="12.2" height="24.65" x="841.8" y="465.1" fill="#262626" shape-rendering="crispEdges"/><rect width="12.2" height="24.65" x="854" y="465.1" fill="#121212" shape-rendering="crispEdges"/><rect width="12.2" height="24.65" x="866.2" y="465.1" fill="#121212" shape-rendering="crispEdges"/><rect width="561.2" height="24.65" x="878.4" y="465.1" fill="#121212" shape-rendering="crispEdges"/><rect width="12.2" height="24.65" x="1439.6" y="465.1" fill="#000" shape-rendering="crispEdges"/><rect width="841.8" height="24.65" x="0" y="489.5" fill="#262626" shape-rendering="crispEdges"/><rect width="12.2" height="24.65" x="841.8" y="489.5" fill="#262626" shape-rendering="crispEdges"/><rect width="12.2" height="24.65" x="854" y="489.5" fill="#121212" shape-rendering="crispEdges"/><rect width="12.2" height="24.65" x="866.2" y="489.5" fill="#121212" shape-rendering="crispEdges"/><rect width="353.8" height="24.65" x="878.4" y="489.5" fill="#121212" shape-rendering="crispEdges"/><rect width="207.4" height="24.65" x="1232.2" y="489.5" fill="#121212" shape-rendering="crispEdges"/><rect width="12.2" height="24.65" x="1439.6" y="489.5" fill="#000" shape-rendering="crispEdges"/><rect width="841.8" height="24.65" x="0" y="513.9" fill="#262626" shape-rendering="crispEdges"/><rect width="12.2" height="24.65" x="841.8" y="513.9" fill="#262626" shape-rendering="crispEdges"/><rect width="12.2" height="24.65" x="854" y="513.9" fill="#121212" shape-rendering="crispEdges"/><rect width="12.2" height="24.65" x="866.2" y="513.9" fill="#121212" shape-rendering="crispEdges"/><rect width="353.8" height="24.65" x="878.4" y="513.9" fill="#121212" shape-rendering="crispEdges"/><rect width="207.4" height="24.65" x="1232.2" y="513.9" fill="#121212" shape-rendering="crispEdges"/><rect width="12.2" height="24.65" x="1439.6" y="513.9" fill="#000" shape-rendering="crispEdges"/><rect width="841.8" height="24.65" x="0" y="538.3" fill="#262626" shape-rendering="crispEdges"/><rect width="12.2" height="24.65" x="841.8" y="538.3" fill="#262626" shape-rendering="crispEdges"/><rect width="12.2" height="24.65" x="854" y="538.3" fill="#121212" shape-rendering="crispEdges"/><rect width="12.2" height="24.65" x="866.2" y="538.3" fill="#121212" shape-rendering="crispEdges"/><rect width="561.2" height="24.65" x="878.4" y="538.3" fill="#121212" shape-rendering="crispEdges"/><rect width="12.2" height="24.65" x="1439.6" y="538.3" fill="#000" shape-rendering="crispEdges"/><rect width="841.8" height="24.65" x="0" y="562.7" fill="#262626" shape-rendering="crispEdges"/><rect width="12.2" height="24.65" x="841.8" y="562.7" fill="#262626" shape-rendering="crispEdges"/><rect width="12.2" height="24.65" x="854" y="562.7" fill="#121212" shape-rendering="crispEdges"/><rect width="12.2" height="24.65" x="866.2" y="562.7" fill="#121212" shape-rendering="crispEdges"/><rect width="463.6" height="24.65" x="878.4" y="562.7" fill="#121212" shape-rendering="crispEdges"/><rect width="97.6" height="24.65" x="1342" y="562.7" fill="#121212" shape-rendering="crispEdges"/><rect width="12.2" height="24.65" x="1439.6" y="562.7" fill="#000" shape-rendering="crispEdges"/><rect width="841.8" height="24.65" x="0" y="587.1" fill="#262626" shape-rendering="crispEdges"/><rect width="12.2" height="24.65" x="841.8" y="587.1" fill="#262626" shape-rendering="crispEdges"/><rect width="12.2" height="24.65" x="854" y="587.1" fill="#121212" shape-rendering="crispEdges"/><rect width="12.2" height="24.65" x="866.2" y="587.1" fill="#121212" shape-rendering="crispEdges"/><rect width="549" height="24.65" x="878.4" y="587.1" fill="#121212" shape-rendering="crispEdges"/><rect width="12.2" height="24.65" x="1427.4" y="587.1" fill="#121212" shape-rendering="crispEdges"/><rect width="12.2" height="24.65" x="1439.6" y="587.1" fill="#000" shape-rendering="crispEdges"/><rect width="841.8" height="24.65" x="0" y="611.5" fill="#262626" shape-rendering="crispEdges"/><rect width="12.2" height="24.65" x="841.8" y="611.5" fill="#262626" shape-rendering="crispEdges"/><rect width="12.2" height="24.65" x="854" y="611.5" fill="#121212" shape-rendering="crispEdges"/><rect width="12.2" height="24.65" x="866.2" y="611.5" fill="#121212" shape-rendering="crispEdges"/><rect width="183" height="24.65" x="878.4" y="611.5" fill="#121212" shape-rendering="crispEdges"/><rect width="378.2" height="24.65" x="1061.4" y="611.5" fill="#121212" shape-rendering="crispEdges"/><rect width="12.2" height="24.65" x="1439.6" y="611.5" fill="#000" shape-rendering="crispEdges"/><rect width="841.8" height="24.65" x="0" y="635.9" fill="#262626" shape-rendering="crispEdges"/><rect width="12.2" height="24.65" x="841.8" y="635.9" fill="#262626" shape-rendering="crispEdges"/><rect width="12.2" height="24.65" x="854" y="635.9" fill="#121212" shape-rendering="crispEdges"/><rect width="12.2" height="24.65" x="866.2" y="635.9" fill="#121212" shape-rendering="crispEdges"/><rect width="561.2" height="24.65" x="878.4" y="635.9" fill="#121212" shape-rendering="crispEdges"/><rect width="12.2" height="24.65" x="1439.6" y="635.9" fill="#000" shape-rendering="crispEdges"/><rect width="841.8" height="24.65" x="0" y="660.3" fill="#262626" shape-rendering="crispEdges"/><rect width="12.2" height="24.65" x="841.8" y="660.3" fill="#262626" shape-rendering="crispEdges"/><rect width="12.2" height="24.65" x="854" y="660.3" fill="#121212" shape-rendering="crispEdges"/><rect width="12.2" height="24.65" x="866.2" y="660.3" fill="#121212" shape-rendering="crispEdges"/><rect width="463.6" height="24.65" x="878.4" y="660.3" fill="#121212" shape-rendering="crispEdges"/><rect width="97.6" height="24.65" x="1342" y="660.3" fill="#121212" shape-rendering="crispEdges"/><rect width="12.2" height="24.65" x="1439.6" y="660.3" fill="#000" shape-rendering="crispEdges"/><rect width="841.8" height="24.65" x="0" y="684.7" fill="#262626" shape-rendering="crispEdges"/><rect width="12.2" height="24.65" x="841.8" y="684.7" fill="#262626" shape-rendering="crispEdges"/><rect width="12.2" height="24.65" x="854" y="684.7" fill="#121212" shape-rendering="crispEdges"/><rect width="12.2" height="24.65" x="866.2" y="684.7" fill="#121212" shape-rendering="crispEdges"/><rect width="183" height="24.65" x="878.4" y="684.7" fill="#121212" shape-rendering="crispEdges"/><rect width="378.2" height="24.65" x="1061.4" y="684.7" fill="#121212" shape-rendering="crispEdges"/><rect width="12.2" height="24.65" x="1439.6" y="684.7" fill="#000" shape-rendering="crispEdges"/><rect width="841.8" height="24.65" x="0" y="709.1" fill="#262626" shape-rendering="crispEdges"/><rect width="12.2" height="24.65" x="841.8" y="709.1" fill="#262626" shape-rendering="crispEdges"/><rect width="12.2" height="24.65" x="854" y="709.1" fill="#121212" shape-rendering="crispEdges"/><rect width="12.2" height="24.65" x="866.2" y="709.1" fill="#121212" shape-rendering="crispEdges"/><rect width="561.2" height="24.65" x="878.4" y="709.1" fill="#121212" shape-rendering="crispEdges"/><rect width="12.2" height="24.65" x="1439.6" y="709.1" fill="#000" shape-rendering="crispEdges"/><rect width="841.8" height="24.65" x="0" y="733.5" fill="#262626" shape-rendering="crispEdges"/><rect width="12.2" height="24.65" x="841.8" y="733.5" fill="#262626" shape-rendering="crispEdges"/><rect width="12.2" height="24.65" x="854" y="733.5" fill="#121212" shape-rendering="crispEdges"/><rect width="12.2" height="24.65" x="866.2" y="733.5" fill="#121212" shape-rendering="crispEdges"/><rect width="500.2" height="24.65" x="878.4" y="733.5" fill="#121212" shape-rendering="crispEdges"/><rect width="61" height="24.65" x="1378.6" y="733.5" fill="#121212" shape-rendering="crispEdges"/><rect width="12.2" height="24.65" x="1439.6" y="733.5" fill="#000" shape-rendering="crispEdges"/><rect width="841.8" height="24.65" x="0" y="757.9" fill="#262626" shape-rendering="crispEdges"/><rect width="12.2" height="24.65" x="841.8" y="757.9" fill="#262626" shape-rendering="crispEdges"/><rect width="12.2" height="24.65" x="854" y="757.9" fill="#121212" shape-rendering="crispEdges"/><rect width="12.2" height="24.65" x="866.2" y="757.9" fill="#121212" shape-rendering="crispEdges"/><rect width="414.8" height="24.65" x="878.4" y="757.9" fill="#121212" shape-rendering="crispEdges"/><rect width="146.4" height="24.65" x="1293.2" y="757.9" fill="#121212" shape-rendering="crispEdges"/><rect width="12.2" height="24.65" x="1439.6" y="757.9" fill="#000" shape-rendering="crispEdges"/><rect width="841.8" height="24.65" x="0" y="782.3" fill="#262626" shape-rendering="crispEdges"/><rect width="12.2" height="24.65" x="841.8" y="782.3" fill="#262626" shape-rendering="crispEdges"/><rect width="12.2" height="24.65" x="854" y="782.3" fill="#121212" shape-rendering="crispEdges"/><rect width="12.2" height="24.65" x="866.2" y="782.3" fill="#121212" shape-rendering="crispEdges"/><rect width="353.8" height="24.65" x="878.4" y="782.3" fill="#121212" shape-rendering="crispEdges"/><rect width="207.4" height="24.65" x="1232.2" y="782.3" fill="#121212" shape-rendering="crispEdges"/><rect width="12.2" height="24.65" x="1439.6" y="782.3" fill="#000" shape-rendering="crispEdges"/><rect width="841.8" height="24.65" x="0" y="806.7" fill="#262626" shape-rendering="crispEdges"/><rect width="12.2" height="24.65" x="841.8" y="806.7" fill="#262626" shape-rendering="crispEdges"/><rect width="12.2" height="24.65" x="854" y="806.7" fill="#121212" shape-rendering="crispEdges"/><rect width="12.2" height="24.65" x="866.2" y="806.7" fill="#121212" shape-rendering="crispEdges"/><rect width="402.6" height="24.65" x="878.4" y="806.7" fill="#121212" shape-rendering="crispEdges"/><rect width="158.6" height="24.65" x="1281" y="806.7" fill="#121212" shape-rendering="crispEdges"/><rect width="12.2" height="24.65" x="1439.6" y="806.7" fill="#000" shape-rendering="crispEdges"/><rect width="12.2" height="24.65" x="0" y="831.1" fill="#1c1c1c" shape-rendering="crispEdges"/><rect width="207.4" height="24.65" x="12.2" y="831.1" fill="#1c1c1c" shape-rendering="crispEdges"/><rect width="36.6" height="24.65" x="219.6" y="831.1" fill="#1c1c1c" shape-rendering="crispEdges"/><rect width="183" height="24.65" x="256.2" y="831.1" fill="#1c1c1c" shape-rendering="crispEdges"/><rect width="36.6" height="24.65" x="439.2" y="831.1" fill="#1c1c1c" shape-rendering="crispEdges"/><rect width="170.8" height="24.65" x="475.8" y="831.1" fill="#1c1c1c" shape-rendering="crispEdges"/><rect width="36.6" height="24.65" x="646.6" y="831.1" fill="#1c1c1c" shape-rendering="crispEdges"/><rect width="97.6" height="24.65" x="683.2" y="831.1" fill="#1c1c1c" shape-rendering="crispEdges"/><rect width="36.6" height="24.65" x="780.8" y="831.1" fill="#1c1c1c" shape-rendering="crispEdges"/><rect width="219.6" height="24.65" x="817.4" y="831.1" fill="#1c1c1c" shape-rendering="crispEdges"/><g class="terminal-2688778591-matrix"><text x="12.2" y="20" class="terminal-2688778591-r2" clip-path="url(#terminal-2688778591-line-0)" textLength="353.8">the plan of ~/graphene-polish</text><text x="0" y="44.4" class="terminal-2688778591-r3" clip-path="url(#terminal-2688778591-line-1)" textLength="24.4">▼</text><text x="24.4" y="44.4" class="terminal-2688778591-r4" clip-path="url(#terminal-2688778591-line-1)" textLength="817.4">○ Load the Northwind XML feed through the same `load`… 2/4 done</text><text x="854" y="44.4" class="terminal-2688778591-r5" clip-path="url(#terminal-2688778591-line-1)" textLength="12.2">│</text><text x="878.4" y="44.4" class="terminal-2688778591-r3" clip-path="url(#terminal-2688778591-line-1)" textLength="280.6">2026-09-24T03:58:33Z *</text><text x="0" y="68.8" class="terminal-2688778591-r5" clip-path="url(#terminal-2688778591-line-2)" textLength="24.4">├</text><text x="24.4" y="68.8" class="terminal-2688778591-r3" clip-path="url(#terminal-2688778591-line-2)" textLength="24.4">▶</text><text x="48.8" y="68.8" class="terminal-2688778591-r7" clip-path="url(#terminal-2688778591-line-2)" textLength="24.4">✓</text><text x="73.2" y="68.8" class="terminal-2688778591-r2" clip-path="url(#terminal-2688778591-line-2)" textLength="500.2">zero price is skipped for every supplier</text><text x="573.4" y="68.8" class="terminal-2688778591-r8" clip-path="url(#terminal-2688778591-line-2)" textLength="146.4">zero-price</text><text x="719.8" y="68.8" class="terminal-2688778591-r7" clip-path="url(#terminal-2688778591-line-2)" textLength="122">done</text><text x="854" y="68.8" class="terminal-2688778591-r5" clip-path="url(#terminal-2688778591-line-2)" textLength="12.2">│</text><text x="878.4" y="68.8" class="terminal-2688778591-r3" clip-path="url(#terminal-2688778591-line-2)" textLength="549">goal_proposed claude:59409a10 Load the</text><text x="0" y="93.2" class="terminal-2688778591-r5" clip-path="url(#terminal-2688778591-line-3)" textLength="24.4">└</text><text x="24.4" y="93.2" class="terminal-2688778591-r3" clip-path="url(#terminal-2688778591-line-3)" textLength="48.8">▼ ○</text><text x="73.2" y="93.2" class="terminal-2688778591-r2" clip-path="url(#terminal-2688778591-line-3)" textLength="500.2">the xml source is wired in</text><text x="573.4" y="93.2" class="terminal-2688778591-r8" clip-path="url(#terminal-2688778591-line-3)" textLength="146.4">xml-source</text><text x="719.8" y="93.2" class="terminal-2688778591-r3" clip-path="url(#terminal-2688778591-line-3)" textLength="122">1/3 done</text><text x="854" y="93.2" class="terminal-2688778591-r5" clip-path="url(#terminal-2688778591-line-3)" textLength="12.2">│</text><text x="878.4" y="93.2" class="terminal-2688778591-r3" clip-path="url(#terminal-2688778591-line-3)" textLength="561.2">Northwind XML feed through the same `load`</text><text x="0" y="117.6" class="terminal-2688778591-r5" clip-path="url(#terminal-2688778591-line-4)" textLength="48.8">├</text><text x="73.2" y="117.6" class="terminal-2688778591-r7" clip-path="url(#terminal-2688778591-line-4)" textLength="24.4">✓</text><text x="97.6" y="117.6" class="terminal-2688778591-r3" clip-path="url(#terminal-2688778591-line-4)" textLength="475.8">an xml reader</text><text x="573.4" y="117.6" class="terminal-2688778591-r8" clip-path="url(#terminal-2688778591-line-4)" textLength="146.4">xml-reader</text><text x="719.8" y="117.6" class="terminal-2688778591-r7" clip-path="url(#terminal-2688778591-line-4)" textLength="122">done</text><text x="854" y="117.6" class="terminal-2688778591-r5" clip-path="url(#terminal-2688778591-line-4)" textLength="12.2">│</text><text x="878.4" y="117.6" class="terminal-2688778591-r3" clip-path="url(#terminal-2688778591-line-4)" textLength="524.6">command and JSONL sink as csv and json,</text><text x="0" y="142" class="terminal-2688778591-r5" clip-path="url(#terminal-2688778591-line-5)" textLength="48.8">├</text><text x="48.8" y="142" class="terminal-2688778591-r3" clip-path="url(#terminal-2688778591-line-5)" textLength="524.6">○ xml enabled end to end</text><text x="573.4" y="142" class="terminal-2688778591-r8" clip-path="url(#terminal-2688778591-line-5)" textLength="146.4">xml-wiring</text><text x="719.8" y="142" class="terminal-2688778591-r3" clip-path="url(#terminal-2688778591-line-5)" textLength="122">ready</text><text x="854" y="142" class="terminal-2688778591-r5" clip-path="url(#terminal-2688778591-line-5)" textLength="12.2">│</text><text x="878.4" y="142" class="terminal-2688778591-r3" clip-path="url(#terminal-2688778591-line-5)" textLength="451.4">skipping the summary line and any</text><text x="0" y="166.4" class="terminal-2688778591-r5" clip-path="url(#terminal-2688778591-line-6)" textLength="48.8">└</text><text x="73.2" y="166.4" class="terminal-2688778591-r9" clip-path="url(#terminal-2688778591-line-6)" textLength="24.4">◇</text><text x="97.6" y="166.4" class="terminal-2688778591-r3" clip-path="url(#terminal-2688778591-line-6)" textLength="475.8">read the new README section for xml</text><text x="573.4" y="166.4" class="terminal-2688778591-r8" clip-path="url(#terminal-2688778591-line-6)" textLength="146.4">n6</text><text x="719.8" y="166.4" class="terminal-2688778591-r9" clip-path="url(#terminal-2688778591-line-6)" textLength="122">yours</text><text x="854" y="166.4" class="terminal-2688778591-r5" clip-path="url(#terminal-2688778591-line-6)" textLength="12.2">│</text><text x="878.4" y="166.4" class="terminal-2688778591-r3" clip-path="url(#terminal-2688778591-line-6)" textLength="292.8">zero-priced product.</text><text x="854" y="190.8" class="terminal-2688778591-r5" clip-path="url(#terminal-2688778591-line-7)" textLength="12.2">│</text><text x="878.4" y="190.8" class="terminal-2688778591-r3" clip-path="url(#terminal-2688778591-line-7)" textLength="414.8">2026-09-24T03:58:33Z zero-price</text><text x="854" y="215.2" class="terminal-2688778591-r5" clip-path="url(#terminal-2688778591-line-8)" textLength="12.2">│</text><text x="878.4" y="215.2" class="terminal-2688778591-r3" clip-path="url(#terminal-2688778591-line-8)" textLength="427">proposed claude:59409a10</text><text x="854" y="239.6" class="terminal-2688778591-r5" clip-path="url(#terminal-2688778591-line-9)" textLength="12.2">│</text><text x="878.4" y="239.6" class="terminal-2688778591-r3" clip-path="url(#terminal-2688778591-line-9)" textLength="402.6">2026-09-24T03:58:33Z zero-rule</text><text x="854" y="264" class="terminal-2688778591-r5" clip-path="url(#terminal-2688778591-line-10)" textLength="12.2">│</text><text x="878.4" y="264" class="terminal-2688778591-r3" clip-path="url(#terminal-2688778591-line-10)" textLength="427">proposed claude:59409a10</text><text x="854" y="288.4" class="terminal-2688778591-r5" clip-path="url(#terminal-2688778591-line-11)" textLength="12.2">│</text><text x="878.4" y="288.4" class="terminal-2688778591-r3" clip-path="url(#terminal-2688778591-line-11)" textLength="414.8">2026-09-24T03:58:33Z xml-source</text><text x="854" y="312.8" class="terminal-2688778591-r5" clip-path="url(#terminal-2688778591-line-12)" textLength="12.2">│</text><text x="878.4" y="312.8" class="terminal-2688778591-r3" clip-path="url(#terminal-2688778591-line-12)" textLength="427">proposed claude:59409a10</text><text x="854" y="337.2" class="terminal-2688778591-r5" clip-path="url(#terminal-2688778591-line-13)" textLength="12.2">│</text><text x="878.4" y="337.2" class="terminal-2688778591-r3" clip-path="url(#terminal-2688778591-line-13)" textLength="414.8">2026-09-24T03:58:33Z xml-reader</text><text x="1439.6" y="337.2" class="terminal-2688778591-r10" clip-path="url(#terminal-2688778591-line-13)" textLength="12.2">▆</text><text x="854" y="361.6" class="terminal-2688778591-r5" clip-path="url(#terminal-2688778591-line-14)" textLength="12.2">│</text><text x="878.4" y="361.6" class="terminal-2688778591-r3" clip-path="url(#terminal-2688778591-line-14)" textLength="427">proposed claude:59409a10</text><text x="854" y="386" class="terminal-2688778591-r5" clip-path="url(#terminal-2688778591-line-15)" textLength="12.2">│</text><text x="878.4" y="386" class="terminal-2688778591-r3" clip-path="url(#terminal-2688778591-line-15)" textLength="414.8">2026-09-24T03:58:33Z xml-wiring</text><text x="854" y="410.4" class="terminal-2688778591-r5" clip-path="url(#terminal-2688778591-line-16)" textLength="12.2">│</text><text x="878.4" y="410.4" class="terminal-2688778591-r3" clip-path="url(#terminal-2688778591-line-16)" textLength="427">proposed claude:59409a10</text><text x="854" y="434.8" class="terminal-2688778591-r5" clip-path="url(#terminal-2688778591-line-17)" textLength="12.2">│</text><text x="878.4" y="434.8" class="terminal-2688778591-r3" clip-path="url(#terminal-2688778591-line-17)" textLength="561.2">2026-09-24T03:59:35Z xml-wiring edited</text><text x="854" y="459.2" class="terminal-2688778591-r5" clip-path="url(#terminal-2688778591-line-18)" textLength="12.2">│</text><text x="878.4" y="459.2" class="terminal-2688778591-r3" clip-path="url(#terminal-2688778591-line-18)" textLength="366">alexlopez scope:</text><text x="854" y="483.6" class="terminal-2688778591-r5" clip-path="url(#terminal-2688778591-line-19)" textLength="12.2">│</text><text x="878.4" y="483.6" class="terminal-2688778591-r3" clip-path="url(#terminal-2688778591-line-19)" textLength="561.2">normalize/fields.py, config/defaults.py,</text><text x="854" y="508" class="terminal-2688778591-r5" clip-path="url(#terminal-2688778591-line-20)" textLength="12.2">│</text><text x="878.4" y="508" class="terminal-2688778591-r3" clip-path="url(#terminal-2688778591-line-20)" textLength="353.8">cli/main.py, README.md,</text><text x="854" y="532.4" class="terminal-2688778591-r5" clip-path="url(#terminal-2688778591-line-21)" textLength="12.2">│</text><text x="878.4" y="532.4" class="terminal-2688778591-r3" clip-path="url(#terminal-2688778591-line-21)" textLength="353.8">tests/test_xmlfeed.py →</text><text x="854" y="556.8" class="terminal-2688778591-r5" clip-path="url(#terminal-2688778591-line-22)" textLength="12.2">│</text><text x="878.4" y="556.8" class="terminal-2688778591-r3" clip-path="url(#terminal-2688778591-line-22)" textLength="561.2">normalize/fields.py, config/defaults.py,</text><text x="854" y="581.2" class="terminal-2688778591-r5" clip-path="url(#terminal-2688778591-line-23)" textLength="12.2">│</text><text x="878.4" y="581.2" class="terminal-2688778591-r3" clip-path="url(#terminal-2688778591-line-23)" textLength="463.6">README.md, tests/test_xmlfeed.py</text><text x="854" y="605.6" class="terminal-2688778591-r5" clip-path="url(#terminal-2688778591-line-24)" textLength="12.2">│</text><text x="878.4" y="605.6" class="terminal-2688778591-r3" clip-path="url(#terminal-2688778591-line-24)" textLength="549">2026-09-24T03:59:47Z n6 added</text><text x="854" y="630" class="terminal-2688778591-r5" clip-path="url(#terminal-2688778591-line-25)" textLength="12.2">│</text><text x="878.4" y="630" class="terminal-2688778591-r3" clip-path="url(#terminal-2688778591-line-25)" textLength="183">alexlopez</text><text x="854" y="654.4" class="terminal-2688778591-r5" clip-path="url(#terminal-2688778591-line-26)" textLength="12.2">│</text><text x="878.4" y="654.4" class="terminal-2688778591-r3" clip-path="url(#terminal-2688778591-line-26)" textLength="561.2">2026-09-24T04:00:04Z n6 edited</text><text x="854" y="678.8" class="terminal-2688778591-r5" clip-path="url(#terminal-2688778591-line-27)" textLength="12.2">│</text><text x="878.4" y="678.8" class="terminal-2688778591-r3" clip-path="url(#terminal-2688778591-line-27)" textLength="463.6">alexlopez owner: agent →</text><text x="854" y="703.2" class="terminal-2688778591-r5" clip-path="url(#terminal-2688778591-line-28)" textLength="12.2">│</text><text x="878.4" y="703.2" class="terminal-2688778591-r3" clip-path="url(#terminal-2688778591-line-28)" textLength="183">alexlopez</text><text x="854" y="727.6" class="terminal-2688778591-r5" clip-path="url(#terminal-2688778591-line-29)" textLength="12.2">│</text><text x="878.4" y="727.6" class="terminal-2688778591-r3" clip-path="url(#terminal-2688778591-line-29)" textLength="561.2">2026-09-24T04:00:43Z zero-rule edited</text><text x="854" y="752" class="terminal-2688778591-r5" clip-path="url(#terminal-2688778591-line-30)" textLength="12.2">│</text><text x="878.4" y="752" class="terminal-2688778591-r3" clip-path="url(#terminal-2688778591-line-30)" textLength="500.2">alexlopez signoff: no → yes</text><text x="854" y="776.4" class="terminal-2688778591-r5" clip-path="url(#terminal-2688778591-line-31)" textLength="12.2">│</text><text x="878.4" y="776.4" class="terminal-2688778591-r3" clip-path="url(#terminal-2688778591-line-31)" textLength="414.8">2026-09-24T04:00:51Z zero-price</text><text x="854" y="800.8" class="terminal-2688778591-r5" clip-path="url(#terminal-2688778591-line-32)" textLength="12.2">│</text><text x="878.4" y="800.8" class="terminal-2688778591-r3" clip-path="url(#terminal-2688778591-line-32)" textLength="353.8">accepted alexlopez</text><text x="854" y="825.2" class="terminal-2688778591-r5" clip-path="url(#terminal-2688778591-line-33)" textLength="12.2">│</text><text x="878.4" y="825.2" class="terminal-2688778591-r3" clip-path="url(#terminal-2688778591-line-33)" textLength="402.6">2026-09-24T04:00:51Z zero-rule</text><text x="12.2" y="849.6" class="terminal-2688778591-r9" clip-path="url(#terminal-2688778591-line-34)" textLength="207.4">waiting on you: 1</text><text x="219.6" y="849.6" class="terminal-2688778591-r11" clip-path="url(#terminal-2688778591-line-34)" textLength="36.6">·</text><text x="256.2" y="849.6" class="terminal-2688778591-r3" clip-path="url(#terminal-2688778591-line-34)" textLength="183">executors: none</text><text x="439.2" y="849.6" class="terminal-2688778591-r11" clip-path="url(#terminal-2688778591-line-34)" textLength="36.6">·</text><text x="475.8" y="849.6" class="terminal-2688778591-r3" clip-path="url(#terminal-2688778591-line-34)" textLength="170.8">R runs 1 ready</text><text x="646.6" y="849.6" class="terminal-2688778591-r11" clip-path="url(#terminal-2688778591-line-34)" textLength="36.6">·</text><text x="683.2" y="849.6" class="terminal-2688778591-r3" clip-path="url(#terminal-2688778591-line-34)" textLength="97.6">2/4 done</text><text x="780.8" y="849.6" class="terminal-2688778591-r11" clip-path="url(#terminal-2688778591-line-34)" textLength="36.6">·</text><text x="817.4" y="849.6" class="terminal-2688778591-r3" clip-path="url(#terminal-2688778591-line-34)" textLength="219.6">plan first: on (P)</text><text x="12.2" y="874" class="terminal-2688778591-r3" clip-path="url(#terminal-2688778591-line-35)" textLength="488">graphene plan log: 33 lines, in the pane</text></g></g></svg>